<?xml version="1.0" encoding="UTF-8" standalone="no"?><!DOCTYPE svg PUBLIC "-//W3C//DTD SVG 1.1//EN" "http://www.w3.org/Graphics/SVG/1.1/DTD/svg11.dtd"><svg width="100%" height="100%" viewBox="0 0 3459 3455" version="1.1" xmlns="http://www.w3.org/2000/svg" xmlns:xlink="http://www.w3.org/1999/xlink" xml:space="preserve" xmlns:serif="http://www.serif.com/" style="fill-rule:evenodd;clip-rule:evenodd;stroke-linejoin:round;stroke-miterlimit:2;"><g><g><path d="M1914.54,204.676l218.791,1162.35l-49.75,126.85l3.042,-16.529l-160.042,107.741c-19.166,12.913 -45.125,7.688 -57.916,-11.671c-1.334,-2.05 -2.5,-4.22 -3.5,-6.483l-136.875,-315.654l-5.375,12.358l-22.917,-118.258l214.542,-940.704Z" style="fill:#94cb25;fill-opacity:0.84;"/><path d="M1699.04,1146.34l21.791,109.192l-100,224.142l78.209,-333.334Z" style="fill:#83c042;"/><path d="M2135.83,1367.18l85,446.933l-170.083,188.5c-11.625,12.917 -31.583,13.942 -44.5,2.296c-8.125,-7.329 -11.875,-18.35 -9.875,-29.108l89.417,-482.196l50.041,-126.425Z" style="fill:#a4ca2c;"/><path d="M2575.17,1913.12l99.833,541.559l-13.917,-2.079l-311.083,-29.955l280.125,-178.987l-127.792,-43.421c-21.916,-7.433 -33.708,-31.3 -26.291,-53.304c0.333,-1.013 0.708,-2.017 1.125,-3.004l98,-230.809Zm-47.667,-258.441l44.583,241.758l-171.583,37.067l127,-278.825Z" style="fill:#f8ac1d;"/><path d="M883.25,2282.37l242.042,154l-242.125,23.221l-79,11.754l79.083,-188.975Zm75.458,-180.391l17.625,41.371c9.167,21.462 -0.833,46.262 -22.291,55.395c-1,0.425 -2,0.809 -3.042,1.155l-38.75,13.104l46.458,-111.025Zm154.042,-368.134l62.25,207.38l-0.625,1.095c-8.458,6.7 -19.5,10.167 -31.125,8.805c-1.292,-0.155 -2.625,-0.375 -3.958,-0.659l-107.5,-23.129l80.958,-193.492Z" style="fill:#3078c4;"/><path d="M2225,2408.84l6.458,0.255l101.875,12.245l-101.875,-12.245l-6.458,-0.255Z" style="fill:#94cb25;fill-opacity:0.84;"/><path d="M1124.75,2434.52l-245.375,23.52l-79.375,13.3l0.667,-1.595l78.708,-11.705l245.375,-23.52Zm465.417,-1850.68l109.833,561.121l-82.083,356.35l-28.209,64.429c-9.333,21.275 -34.166,30.975 -55.458,21.667c-2.25,-0.992 -4.417,-2.175 -6.458,-3.542l-161.5,-107.55l92.625,499.409c3.166,17.125 -8.167,33.579 -25.334,36.741c-10.791,1.992 -21.833,-1.754 -29.166,-9.891l-198.792,-220.35l-15.625,132.629c-1.375,11.533 -7.25,21.425 -15.708,28.096l-3.542,1l-62.667,-208.596l482.084,-1151.51Z" style="fill:#4488ca;"/><path d="M2366.46,783.842l162.709,869.346l-128.584,278.079l-85.958,18.296c-22.917,4.871 -45.458,-9.537 -50.417,-32.183c-0.25,-1.296 -0.5,-2.608 -0.666,-3.929l-15.709,-132.284l-28.708,31.492l-85.792,-446.425l233.125,-582.392Z" style="fill:#f9c04a;"/><path d="M868.5,921.342l244,814.534l-80.292,192.279l-158.333,-34.125l87.083,204.704l-48.666,116.538l-85.459,28.966l57.917,36.929l-79.458,190.342l-121.625,18.129c-64.917,10.913 -127.917,22.771 -188.875,35.513l-115.625,29.525l489.333,-1633.33Z" style="fill:#4aa2d7;"/><path d="M2691.54,1296.34l387.625,1229.17l-28.042,-7.183c-60.792,-12.75 -123.667,-24.613 -188.417,-35.534l-185.833,-27.787l-100,-542.804l8.125,-19.142l-11.208,2.421l-44.625,-242.313l162.375,-356.825Z" style="fill:#f8824b;"/><path d="M2333.33,2421.34l329.167,29.167l-329.167,-29.167Z" style="fill:#94cb25;fill-opacity:0.84;"/><path d="M2662.5,2450.51l12.458,3.683l0.042,0.484l-12.5,-4.167Z" style="fill:#94cb25;fill-opacity:0.84;"/><text x="212.84px" y="3159.6px" style="font-family:'LucidaGrande-Bold', 'Lucida Grande', sans-serif;font-weight:600;font-size:687.5px;fill:#122965;">AURORA</text></g></g></svg>