<?xml version="1.0" encoding="UTF-8" standalone="no"?><!DOCTYPE svg PUBLIC "-//W3C//DTD SVG 1.1//EN" "http://www.w3.org/Graphics/SVG/1.1/DTD/svg11.dtd"><svg width="100%" height="100%" viewBox="0 0 2600 2363" version="1.1" xmlns="http://www.w3.org/2000/svg" xmlns:xlink="http://www.w3.org/1999/xlink" xml:space="preserve" xmlns:serif="http://www.serif.com/" style="fill-rule:evenodd;clip-rule:evenodd;stroke-linejoin:round;stroke-miterlimit:2;"><path d="M1358.51,237.025c27.412,11.243 54.031,23.934 80.596,36.967c6.685,3.229 13.371,6.459 20.258,9.786c12.975,6.338 25.922,12.73 38.845,19.168c40.101,19.858 80.811,38.513 121.364,57.46c24.388,11.397 48.741,22.861 73.066,34.387c64.176,30.385 128.555,60.128 193.542,88.809c46.973,20.822 93.002,43.236 138.916,66.198c6.184,2.944 6.184,2.944 12.493,5.948c4.171,1.992 8.343,3.985 12.641,6.038c3.804,1.795 7.608,3.59 11.528,5.44c13.66,7.43 23.542,16.97 33.657,28.542c-23.266,77.354 -47.41,154.779 -80.276,228.785c-9.992,23.979 -18.467,48.382 -27.033,72.88c-14.568,41.383 -29.823,82.429 -46.147,123.179c-1.88,4.793 -3.759,9.585 -5.695,14.522c-10.424,25.659 -21.246,45.366 -40.086,66.281c-13.122,17.31 -26.156,34.681 -39.165,52.073c-13.574,16.879 -13.574,16.879 -28.796,31.603c-13.698,13.629 -21.964,26.263 -31.657,42.736c-8.001,10.075 -16.195,20.004 -24.538,29.808c-17.18,20.318 -34.207,40.711 -50.908,61.41c-15.816,19.509 -32.064,38.558 -48.631,57.45c-24.611,28.092 -47.4,56.024 -67.744,87.322c-14.147,21.151 -30.65,39.791 -49.168,57.415c-11.43,10.695 -11.43,10.695 -18.678,24.062c-14.308,22.862 -32.745,41.794 -50.908,61.769c-13.511,15.519 -23.806,29.396 -33.695,47.405c-12.575,22.272 -29.166,39.627 -46.65,58.312c-20.781,23.159 -39.561,47.747 -58.554,72.319c-12.074,15.544 -24.381,30.856 -36.899,46.058c-13.551,-1.077 -13.551,-1.077 -29.299,-5.746c-6.011,-9.486 -11.824,-19.093 -17.58,-28.73c-12.685,-16.808 -25.967,-33.155 -39.188,-49.559c-22.914,-28.603 -45.624,-57.186 -67.023,-86.908c-20.513,-28.11 -43.189,-53.96 -66.306,-80.004c-24.471,-27.69 -47.2,-56.303 -69.776,-85.508c-24.182,-31.073 -49.607,-61.181 -74.829,-91.442c-2.891,-3.489 -5.782,-6.978 -8.761,-10.572c-7.248,-8.662 -14.661,-17.191 -22.095,-25.7c-9.476,-12.749 -9.476,-12.749 -9.476,-29.987c-3.513,-1.459 -7.025,-2.918 -10.644,-4.421c-14.316,-7.911 -20.559,-15.193 -30.01,-28.259c-3.006,-4.089 -6.012,-8.177 -9.11,-12.39c-5.541,-7.77 -11.067,-15.549 -16.572,-23.343c-11.576,-16.276 -22.545,-30.231 -36.945,-44.352c-13.918,-13.647 -13.918,-13.647 -21.586,-26.508c-12.197,-19.528 -26.581,-36.246 -41.775,-53.577c-2.798,-3.24 -5.597,-6.481 -8.481,-9.82c-12.162,-13.987 -24.027,-27.091 -37.871,-39.537c-9.683,-10.617 -9.683,-10.617 -9.683,-33.601l-11.72,0c-23.579,-58.835 -44.316,-118.451 -64.459,-178.485c-17.253,-51.404 -35.17,-102.106 -56.333,-152.111c-10.185,-24.954 -19.374,-50.155 -28.269,-75.574c-1.592,-4.412 -3.184,-8.825 -4.824,-13.371c-12.471,-36.327 -12.471,-36.327 -4.332,-57.376c28.612,-22.445 62.216,-36.501 95.223,-51.714c5.847,-2.721 11.694,-5.442 17.719,-8.245c51.063,-23.683 102.356,-46.888 153.769,-69.831c33.585,-15.066 66.786,-30.716 99.762,-47.012c55.038,-27.194 110.707,-53.047 166.412,-78.895c10.023,-4.66 20.045,-9.322 30.067,-13.983c19.639,-9.136 39.29,-18.245 58.949,-27.339c19.004,-8.801 37.949,-17.711 56.857,-26.71c4.498,-2.123 8.997,-4.246 13.632,-6.434c8.412,-3.971 16.807,-7.975 25.183,-12.018c46.073,-21.643 80.452,-23.063 127.696,-5.07Z" style="fill:#0eb1d4;fill-rule:nonzero;"/><path d="M683.178,1072.68c8.836,7.834 8.836,7.834 18.312,19.034c3.566,4.185 7.131,8.37 10.804,12.682c3.928,4.703 7.856,9.406 11.903,14.252c4.412,5.119 8.823,10.237 13.368,15.51c23.042,27 43.896,53.726 62.239,83.968c9.832,14.822 22.859,26.097 35.732,38.426c12.009,14.391 23.72,28.981 35.365,43.656c11.111,13.861 11.111,13.861 23.577,25.274c12.396,12.546 19.804,25.265 28.956,40.244c11.445,14.686 23.497,28.868 35.526,43.095c24.285,28.989 48.251,58.129 71.418,87.986c29.92,38.439 60.959,75.898 92.705,112.9c32.749,38.51 63.085,78.483 93.065,119.094c18.274,24.636 36.957,48.217 57.881,70.754c6.86,8.613 6.86,8.613 12.72,25.851c11.808,4.213 11.808,4.213 23.439,5.746c1.934,-5.689 3.868,-11.377 5.86,-17.238l11.72,-0c1.972,-6.011 1.972,-6.011 3.983,-12.143c9.476,-20.316 22.832,-35.571 37.769,-52.14c5.82,-6.602 11.634,-13.208 17.442,-19.82c2.873,-3.254 5.745,-6.508 8.704,-9.862c11.805,-13.49 23.27,-27.23 34.651,-41.066c3.565,-4.326 7.13,-8.651 10.804,-13.108c10.158,-13.344 18.64,-27.156 27.285,-41.479c5.844,-8.355 11.82,-16.622 17.946,-24.78c2.969,-4.007 5.937,-8.014 8.996,-12.142c2.712,-2.985 5.423,-5.97 8.217,-9.046l11.72,0c1.654,-3.326 3.309,-6.651 5.013,-10.078c17.567,-33.804 37.142,-61.368 65.306,-87.604c20.123,-22.549 20.123,-22.549 36.853,-47.494c12.728,-19.945 27.901,-36.869 43.721,-54.497c23.461,-26.478 46.309,-53.148 68.007,-81.05c10.933,-13.98 22.17,-27.694 33.443,-41.412c14.135,-17.253 27.967,-34.637 41.385,-52.432c10.718,-14.183 21.792,-27.7 33.695,-40.94c20.115,-22.431 37.159,-46.868 54.456,-71.421c10.735,-12.974 10.735,-12.974 28.315,-18.72c7.252,8.711 7.252,8.711 14.65,17.598c17.14,19.66 35.824,36.292 55.852,53.06c16.536,14.027 31.798,28.559 46.696,44.262l0,11.492c3.384,1.541 6.768,3.082 10.255,4.669c18.904,9.783 33.122,17.738 43.52,36.51c14.527,22.138 32.923,38.607 52.344,56.638c8.254,7.836 16.502,15.677 24.745,23.523c12.964,12.284 25.959,24.53 39.048,36.686c12.66,11.789 25.166,23.717 37.657,35.677c3.949,3.599 7.897,7.197 11.966,10.905c10.277,9.961 19.003,18.912 26.581,30.978c0.055,29.559 -6.813,45.448 -26.369,67.516c-4.253,4.918 -8.506,9.836 -12.887,14.903c-4.45,5.037 -8.899,10.074 -13.483,15.263c-8.456,10.029 -16.879,20.085 -25.271,30.167c-4.426,5.288 -8.853,10.577 -13.413,16.026c-15.035,18.2 -29.764,36.612 -44.453,55.08c-24.531,30.819 -49.65,61.11 -75.08,91.218c-27.618,32.703 -54.759,65.695 -81.375,99.186c-20.403,25.622 -41.229,50.884 -62.193,76.067c-24.227,29.106 -48.19,58.383 -71.784,87.985c-99.403,124.642 -99.403,124.642 -153.823,136.109c-26.838,2.401 -53.523,2.416 -80.459,2.321c-8.005,0.033 -16.01,0.073 -24.014,0.12c-21.6,0.102 -43.198,0.096 -64.797,0.063c-18.087,-0.017 -36.172,0.018 -54.258,0.052c-42.687,0.081 -85.374,0.072 -128.061,0.007c-43.929,-0.066 -87.856,0.015 -131.784,0.169c-37.829,0.127 -75.657,0.165 -113.486,0.131c-22.544,-0.019 -45.087,-0.006 -67.632,0.094c-21.203,0.089 -42.402,0.065 -63.605,-0.042c-11.418,-0.031 -22.835,0.05 -34.252,0.136c-49.667,-0.407 -87.858,-6.96 -126.367,-39.009c-17.479,-20.087 -34.623,-40.377 -51.434,-61.006c-6.457,-7.89 -12.92,-15.776 -19.388,-23.657c-4.701,-5.753 -4.701,-5.753 -9.497,-11.621c-12.322,-14.687 -25.269,-28.787 -38.391,-42.79c-6.339,-8.84 -6.339,-8.84 -6.339,-26.078c-5.802,-1.896 -11.603,-3.793 -17.58,-5.746c-8.012,-8.642 -8.012,-8.642 -16.847,-20.47c-19.678,-25.645 -40.075,-50.583 -60.797,-75.416c-27.46,-32.999 -54.515,-66.269 -81.255,-99.83c-16.125,-20.204 -32.496,-40.174 -49.128,-59.981c-28.096,-33.492 -55.444,-67.529 -82.628,-101.733c-5.52,-6.942 -11.048,-13.878 -16.584,-20.807c-8.092,-10.133 -16.156,-20.287 -24.212,-30.447c-4.721,-5.941 -9.442,-11.881 -14.307,-18.001c-24.259,-32.68 -24.259,-32.68 -21.219,-54.542c1.209,-4.267 2.417,-8.533 3.663,-12.929c8.702,-2.844 8.702,-2.844 17.579,-5.746c1.572,-3.2 3.143,-6.399 4.762,-9.696c10.081,-19.25 25.04,-34.113 42.118,-47.764l11.719,0l0,-11.492l17.58,0c1.352,-4.074 2.704,-8.147 4.098,-12.345c9.164,-19.699 20.898,-32.777 35.823,-48.706c7.489,-8.111 7.489,-8.111 15.13,-16.385c14.256,-13.539 27.422,-22.211 44.568,-31.738c9.88,-9.463 19.664,-19.026 29.299,-28.73c3.868,-1.896 7.735,-3.792 11.72,-5.746c2.538,-4.266 5.076,-8.532 7.691,-12.928c11.03,-17.626 24.313,-29.945 39.188,-44.532c2.659,-4.525 5.318,-9.051 8.058,-13.714c10.306,-16.251 21.307,-27.139 35.892,-39.795c6.798,-6.011 6.798,-6.011 13.734,-12.143c12.635,-9.046 12.635,-9.046 30.215,-9.046Z" style="fill:#f9af43;fill-rule:nonzero;"/><path d="M1358.51,237.025c27.412,11.243 54.031,23.934 80.596,36.967c6.685,3.229 13.371,6.459 20.258,9.786c12.975,6.338 25.922,12.73 38.845,19.168c40.101,19.858 80.811,38.513 121.364,57.46c24.388,11.397 48.741,22.861 73.066,34.387c64.176,30.385 128.555,60.128 193.542,88.809c46.973,20.822 93.002,43.236 138.916,66.198c6.184,2.944 6.184,2.944 12.493,5.948c4.171,1.992 8.343,3.985 12.641,6.038c3.804,1.795 7.608,3.59 11.528,5.44c13.66,7.43 23.542,16.97 33.657,28.542c-23.266,77.354 -47.41,154.779 -80.276,228.785c-9.992,23.979 -18.467,48.382 -27.033,72.88c-14.695,41.738 -30.082,83.143 -46.513,124.257c-1.929,4.936 -3.857,9.873 -5.844,14.959c-1.849,4.559 -3.697,9.118 -5.601,13.816c-1.611,4.022 -3.222,8.045 -4.882,12.19c-5.648,10.03 -5.648,10.03 -23.228,21.522c-1.208,-5.451 -2.417,-10.903 -3.662,-16.519c-9.941,-34.431 -30.875,-65.595 -53.128,-93.665c-7.669,-10.482 -7.669,-10.482 -7.669,-21.974c-5.801,-1.896 -11.602,-3.792 -17.579,-5.746c-58.6,-62.03 -58.6,-62.03 -58.6,-97.681c-5.461,-0.689 -5.461,-0.689 -11.033,-1.392c-12.406,-4.354 -12.406,-4.354 -18.587,-14.814c-1.586,-4.37 -3.172,-8.74 -4.807,-13.243c-9.935,-24.434 -22.301,-41.195 -40.744,-60.131c-6.867,-8.102 -6.867,-8.102 -6.867,-19.594c-3.626,-1.304 -7.252,-2.608 -10.988,-3.951c-16.21,-9.817 -17.74,-19.033 -24.172,-36.271c-5.734,-5.867 -11.601,-11.611 -17.579,-17.238c-2.78,-4.622 -5.56,-9.244 -8.424,-14.006c-8.421,-14.93 -8.421,-14.93 -20.51,-25.498c-12.633,-12.763 -20.569,-26.093 -29.231,-41.636c-18.661,-33.325 -18.661,-33.325 -47.314,-56.764c-11.776,-16.876 -17.58,-25.238 -17.58,-45.968c-5.801,-1.896 -11.602,-3.793 -17.579,-5.746c-11.783,-9.243 -17.057,-15.858 -22.341,-29.808c-8.333,-19.35 -19.92,-33.855 -33.122,-50.277c-8.996,-11.851 -8.996,-11.851 -17.283,-25.52c-10.692,-17.328 -22.768,-33.081 -35.296,-49.178c-17.598,-22.627 -34.181,-45.57 -50.176,-69.311c-14.859,-20.414 -14.859,-20.414 -35.159,-34.476c-1.504,4.185 -3.007,8.37 -4.556,12.682c-7.493,16.784 -16.282,28.805 -28.04,42.982c-14.429,17.24 -14.429,17.24 -26.003,36.272l-11.72,-0c-2.357,6.577 -2.357,6.577 -4.761,13.288c-6.76,15 -12.739,21.612 -24.539,32.68c-2.901,8.533 -2.901,8.533 -5.86,17.238c-5.811,5.793 -11.676,11.534 -17.579,17.238c-7.865,11.968 -15.095,24.195 -22.364,36.518c-2.289,3.119 -4.578,6.237 -6.936,9.45l-11.72,-0c-2.175,4.622 -2.175,4.622 -4.395,9.337c-9.081,16.92 -19.626,32.47 -30.764,48.123c-3.807,5.37 -7.615,10.74 -11.537,16.273c-4.17,5.77 -8.339,11.54 -12.635,17.485c-4.004,5.555 -8.007,11.11 -12.132,16.833c-5.235,6.245 -5.235,6.245 -10.576,12.615l-11.719,-0l-0,17.238l-11.72,-0c-0.612,3.318 -1.224,6.636 -1.854,10.055c-4.627,14.931 -11.316,23.756 -21.22,35.913c-9.332,11.511 -17.408,21.926 -24.103,35.104c-8.302,16.214 -21.807,26.792 -34.862,39.594c-9.272,11.498 -18.133,23.233 -26.965,35.059c-6.28,8.36 -12.854,16.509 -19.548,24.555c-30.321,37.84 -56.852,77.511 -80.871,119.454c-2.44,3.482 -4.88,6.963 -7.394,10.55l-11.72,-0c-1.631,3.288 -3.263,6.577 -4.944,9.965c-6.674,12.824 -13.804,25.135 -21.425,37.439c-2.478,4.059 -4.956,8.118 -7.508,12.3c-2.357,3.052 -4.714,6.103 -7.142,9.247l-11.72,0l-23.44,45.968l-11.719,0l-0,11.492l-11.72,0c-0.846,3.556 -1.692,7.111 -2.564,10.774c-3.296,12.21 -3.296,12.21 -9.156,23.702l-11.72,0c-23.579,-58.835 -44.316,-118.451 -64.459,-178.485c-17.253,-51.404 -35.17,-102.106 -56.333,-152.111c-10.185,-24.954 -19.374,-50.155 -28.269,-75.574c-1.592,-4.412 -3.184,-8.825 -4.824,-13.371c-12.471,-36.327 -12.471,-36.327 -4.332,-57.376c28.612,-22.445 62.216,-36.501 95.223,-51.714c5.847,-2.721 11.694,-5.442 17.719,-8.245c51.063,-23.683 102.356,-46.888 153.769,-69.831c33.585,-15.066 66.786,-30.716 99.762,-47.012c55.038,-27.194 110.707,-53.047 166.412,-78.895c10.023,-4.66 20.045,-9.322 30.067,-13.983c19.639,-9.136 39.29,-18.245 58.949,-27.339c19.004,-8.801 37.949,-17.711 56.857,-26.71c4.498,-2.123 8.997,-4.246 13.632,-6.434c8.412,-3.971 16.807,-7.975 25.183,-12.018c46.073,-21.643 80.452,-23.063 127.696,-5.07Z" style="fill:#1682c3;fill-rule:nonzero;"/><path d="M1087.51,676.212l123.058,-0c1.934,130.836 3.867,261.672 5.86,396.473c21.271,-22.754 42.543,-45.508 64.459,-68.952c24.904,-24.42 24.904,-24.42 36.098,-35.216c14.601,-14.561 28.145,-29.907 41.614,-45.474c5.042,-5.567 5.042,-5.567 10.186,-11.245c5.349,-7.733 5.349,-7.733 10.805,-15.622c30.35,-21.51 63.086,-16.103 99.435,-14.904c7.414,0.13 14.828,0.259 22.467,0.393c18.277,0.338 36.54,0.81 54.811,1.403c-32.693,39.136 -69.267,74.309 -105.845,109.892c-6.369,6.216 -12.736,12.433 -19.102,18.652c-11.716,11.441 -23.439,22.875 -35.172,34.299c-5.174,5.043 -10.348,10.086 -15.679,15.282c-5.223,4.999 -10.446,9.998 -15.827,15.148c-10.563,10.65 -19.033,20.138 -27.023,32.616c-3.264,5.096 -6.527,10.192 -9.889,15.442c34.554,44.666 69.892,88.595 106.072,132.005c23.787,28.578 47.148,57.452 70.269,86.549c21.533,27.035 43.79,53.403 66.365,79.61c9.27,12.12 9.27,12.12 9.27,23.612c-132.986,12.575 -132.986,12.575 -170.715,-6.228c-20.057,-17.031 -32.052,-39.001 -44.505,-61.674c-14.055,-23.64 -32.153,-44.386 -49.574,-65.692c-6.949,-8.744 -13.886,-17.497 -20.808,-26.261c-21.735,-27.368 -43.742,-54.51 -65.992,-81.477c-5.802,2.845 -5.802,2.845 -11.72,5.746c-1.934,77.744 -3.868,155.487 -5.86,235.586l-123.058,0l-0,-769.963Z" style="fill:#f8fefe;fill-rule:nonzero;"/><path d="M2095.42,601.514c40.392,35.905 45.055,109.444 56.347,159.92c5.748,25.684 11.592,51.347 17.429,77.012c1.18,5.201 2.361,10.401 3.577,15.759c11.442,50.289 23.359,100.464 35.451,150.606c0.978,4.062 1.956,8.124 2.964,12.31c10.21,42.377 20.509,84.733 30.892,127.07c4.596,18.806 9.122,37.628 13.632,56.455c2.775,11.499 5.586,22.99 8.418,34.476c37.191,151.341 37.191,151.341 30.527,216.799c-3,-3.891 -6.001,-7.783 -9.093,-11.792c-17.561,-20.734 -36.736,-39.275 -56.373,-58.103c-8.204,-7.943 -16.406,-15.889 -24.607,-23.836c-12.881,-12.452 -25.775,-24.89 -38.699,-37.299c-12.509,-12.024 -24.964,-24.101 -37.411,-36.187c-3.9,-3.718 -7.8,-7.435 -11.818,-11.265c-3.562,-3.472 -7.123,-6.944 -10.792,-10.521c-3.156,-3.04 -6.313,-6.079 -9.565,-9.211c-6.739,-8.642 -6.739,-8.642 -6.739,-25.88c-3.263,-1.303 -6.526,-2.607 -9.888,-3.95c-17.389,-9.678 -28.876,-22.232 -42.851,-36.272c-10.857,-10.781 -21.722,-21.555 -32.596,-32.321c-2.745,-2.74 -5.491,-5.481 -8.32,-8.305c-11.913,-11.763 -23.59,-22.613 -37.254,-32.411c-3.21,-2.444 -6.421,-4.888 -9.728,-7.407l-0,-11.492c-5.62,-2.133 -5.62,-2.133 -11.354,-4.309c-12.086,-7.183 -12.086,-7.183 -16.299,-17.639c-1.979,-15.05 0.712,-22.401 6.8,-36.275c2.93,-6.869 2.93,-6.869 5.92,-13.877c2.148,-4.886 4.296,-9.773 6.509,-14.808c16.209,-38.171 31.356,-76.287 44.316,-115.638c11.648,-35.2 24.055,-69.933 37.524,-104.501c17.299,-44.561 33.5,-89.512 49.74,-134.453c2.181,-5.992 4.362,-11.984 6.609,-18.157c1.955,-5.403 3.91,-10.806 5.924,-16.372c4.948,-12.38 4.948,-12.38 10.808,-18.126Z" style="fill:#9bd8ed;fill-rule:nonzero;"/><path d="M501.521,595.768c12.781,12.533 15.574,19.905 21.265,36.473c2.707,7.776 2.707,7.776 5.469,15.708c1.934,5.653 3.869,11.306 5.861,17.13c4.22,12.123 8.447,24.243 12.682,36.361c2.192,6.285 4.385,12.57 6.644,19.045c10.583,30.004 21.636,59.838 32.681,89.68c18.983,51.491 37.671,103.077 56.036,154.783c2.261,6.328 4.523,12.656 6.854,19.175c2.089,5.909 4.178,11.817 6.33,17.905c1.844,5.194 3.687,10.388 5.586,15.739c4.575,14.398 7.805,28.594 10.529,43.426l11.72,0l-0,11.492c-6.043,3.082 -12.086,6.163 -18.312,9.338c-34.39,19.318 -55.492,43.674 -75.447,76.852c-9.766,9.577 -19.533,19.154 -29.299,28.73c-1.934,4.03 -3.868,8.059 -5.86,12.211c-8.216,15.105 -20.297,19.337 -35.16,28.011c-3.867,4.741 -7.735,9.481 -11.719,14.365c-11.72,14.365 -11.72,14.365 -25.569,22.288c-16.565,9.987 -27.245,20.48 -39.989,34.813c-3.951,4.378 -7.901,8.755 -11.972,13.265c-9.346,11.673 -15.969,22.427 -22.089,35.935l-17.58,0l0,11.492c-9.224,8.911 -9.224,8.911 -21.608,19.034c-14.711,12.204 -28.835,24.377 -42.118,38.067c-12.452,11.851 -12.452,11.851 -24.172,11.851c-1.808,-40.525 4.372,-73.582 15.748,-112.406c14.944,-53.322 27.529,-106.746 38.529,-160.979c6.714,-32.91 14.337,-65.432 22.779,-97.957c9.182,-35.724 17.823,-71.576 26.506,-107.42c2.281,-9.416 4.566,-18.83 6.855,-28.244c12.593,-51.83 24.9,-103.688 36.103,-155.826c0.911,-4.212 1.822,-8.424 2.76,-12.763c4.278,-19.822 8.478,-39.653 12.548,-59.516c7.857,-36.799 15.586,-66.912 37.409,-98.058Z" style="fill:#9bd7ed;fill-rule:nonzero;"/><path d="M1316.05,1848.39c6.226,11.133 6.226,11.133 11.72,22.984c10.606,6.087 10.606,6.087 23.44,11.492c4.562,2.029 9.125,4.059 13.825,6.15c6.935,3 6.935,3 14.009,6.06c4.684,2.03 9.367,4.059 14.192,6.15c3.535,1.526 7.071,3.052 10.713,4.624l-0,11.492c4.759,0.429 9.518,0.859 14.421,1.302c26.564,5.692 47.578,16.832 71.28,29.583c4.396,2.296 8.793,4.592 13.322,6.958c55.775,29.478 55.775,29.478 64.688,48.706c5.286,12.302 5.286,12.302 18.77,15.824c21.252,8.626 38.391,21.408 56.677,34.812c28.639,20.585 56.356,38.35 88.997,52.433l-0,11.492c-19.43,5.72 -37.042,6.468 -57.285,6.475c-6.91,0.017 -13.82,0.033 -20.939,0.049c-7.559,-0.011 -15.118,-0.023 -22.907,-0.035c-8.057,0.008 -16.115,0.018 -24.172,0.031c-21.865,0.026 -43.73,0.016 -65.595,-0.002c-22.875,-0.015 -45.75,-0.002 -68.626,0.007c-38.408,0.011 -76.817,-0.003 -115.226,-0.03c-44.424,-0.031 -88.848,-0.021 -133.272,0.01c-38.131,0.026 -76.262,0.03 -114.393,0.015c-22.779,-0.009 -45.558,-0.01 -68.338,0.009c-21.408,0.016 -42.816,0.005 -64.224,-0.028c-11.62,-0.012 -23.24,0.006 -34.86,0.023c-6.894,-0.016 -13.787,-0.032 -20.889,-0.049c-6.003,-0.002 -12.006,-0.004 -18.191,-0.006c-14.91,-0.723 -14.91,-0.723 -32.49,-6.469l0,-11.492c11.603,-2.845 11.603,-2.845 23.44,-5.746l-0,-11.492c3.248,-1.393 6.496,-2.785 9.843,-4.22c4.245,-1.926 8.49,-3.852 12.864,-5.836c6.322,-2.8 6.322,-2.8 12.773,-5.656c12.207,-6.421 12.207,-6.421 17.03,-18.63c8.289,-15.828 17.672,-19.225 33.923,-26.709c5.213,-2.408 10.425,-4.815 15.795,-7.295c16.445,-6.978 32.913,-12.958 50.129,-17.844l0,-17.238c16.926,-12.111 25.694,-17.238 46.88,-17.238l-0,-11.492c18.915,-12.365 25.104,-12.646 46.879,-11.492c0.906,-5.333 0.906,-5.333 1.831,-10.774c4.029,-12.21 4.029,-12.21 21.609,-23.702l23.439,-0l0,-11.492c6.406,-2.489 12.811,-4.978 19.411,-7.542c16.672,-6.907 26.674,-14.05 39.188,-26.934l17.58,-0l0,-11.492c19.355,-11.95 31.103,-13.562 52.739,-5.746Z" style="fill:#eee037;fill-rule:nonzero;"/><path d="M1222.29,1199.1c21.277,15.225 34.564,28.835 46.879,51.714c-5.801,2.845 -5.801,2.845 -11.72,5.746l0,-11.492c-7.735,1.896 -15.47,3.793 -23.439,5.746c1.933,-9.481 3.867,-18.961 5.859,-28.73c-5.801,3.793 -11.602,7.585 -17.579,11.492c-1.907,16.609 -2.725,32.047 -2.793,48.684c-0.137,7.225 -0.137,7.225 -0.277,14.596c-0.279,15.418 -0.441,30.834 -0.593,46.253c-0.213,15.439 -0.451,30.877 -0.718,46.315c-0.161,9.618 -0.285,19.235 -0.373,28.853c-0.458,33.011 -0.458,33.011 -6.966,39.393c-15.334,0.731 -30.444,1.064 -45.781,1.078c-4.249,0.07 -8.498,0.14 -12.875,0.213c-24.273,0.065 -36.283,-1.869 -58.542,-12.783l117.198,0c-0.136,-16.873 -0.272,-33.746 -0.412,-51.13c-0.091,-16.297 -0.163,-32.594 -0.232,-48.892c-0.059,-11.348 -0.139,-22.696 -0.24,-34.044c-0.142,-16.288 -0.209,-32.575 -0.261,-48.863c-0.06,-5.094 -0.121,-10.188 -0.183,-15.436c-0.002,-12.414 0.609,-24.826 1.328,-37.221c3.867,-3.792 7.735,-7.584 11.72,-11.492Z" style="fill:#23aac7;fill-rule:nonzero;"/><path d="M1087.51,670.466l128.918,-0l-0,367.743l11.72,0c1.933,7.585 3.867,15.17 5.86,22.984c-7.736,5.689 -15.471,11.377 -23.44,17.238l-0,-402.219l-123.058,-0l-0,-5.746Z" style="fill:#3bb1ca;fill-rule:nonzero;"/><path d="M1386.37,871.576c24.905,-0.167 49.809,-0.269 74.714,-0.36c7.07,-0.048 14.141,-0.096 21.425,-0.145c10.198,-0.028 10.198,-0.028 20.602,-0.057c6.26,-0.03 12.52,-0.06 18.97,-0.091c14.443,0.566 26.33,2.286 40.086,6.399c-1.933,3.792 -3.867,7.584 -5.859,11.492c-4.64,-0.121 -9.279,-0.241 -14.059,-0.365c-21.072,-0.479 -42.143,-0.777 -63.219,-1.072c-7.301,-0.193 -14.601,-0.385 -22.123,-0.584c-7.044,-0.074 -14.088,-0.148 -21.346,-0.224c-6.475,-0.12 -12.95,-0.241 -19.621,-0.365c-21.69,3.171 -31.383,11.051 -47.15,25.594c1.934,-9.481 3.868,-18.962 5.86,-28.73l11.72,-0l0,-11.492Z" style="fill:#26aac5;fill-rule:nonzero;"/><path d="M1017.19,2009.28c5.801,1.896 11.602,3.792 17.58,5.746l-11.72,-0c-1.571,3.437 -3.143,6.873 -4.761,10.414c-7.169,12.949 -12.699,20.778 -24.539,29.808c-6.889,1.066 -6.889,1.066 -13.917,2.154c-21.216,4.954 -29.866,17.049 -44.682,32.322c-15.961,9.667 -21.909,11.492 -41.019,11.492l-0,-11.492c3.248,-1.393 6.496,-2.785 9.843,-4.22c4.245,-1.926 8.49,-3.852 12.864,-5.836c4.215,-1.866 8.43,-3.733 12.773,-5.656c12.212,-6.408 12.212,-6.408 16.916,-18.607c8.639,-16.224 19.107,-19.595 35.869,-27.092c18.723,-7.58 18.723,-7.58 34.793,-19.033Z" style="fill:#f3d43c;fill-rule:nonzero;"/><path d="M1398.09,1411.7c11.603,5.689 11.603,5.689 23.44,11.492l-0,11.492c44.476,-1.896 88.953,-3.792 134.778,-5.746c1.933,-3.792 3.867,-7.585 5.859,-11.492c8.79,7.901 8.79,7.901 17.58,17.238l0,11.492c-25.878,1.001 -51.751,1.614 -77.644,2.155c-7.349,0.289 -14.699,0.578 -22.272,0.875c-53.229,0.838 -53.229,0.838 -68.568,-10.858c-6.489,-9.545 -6.489,-9.545 -13.173,-26.648Z" style="fill:#c4fbfe;fill-rule:nonzero;"/><path d="M1116.81,1612.81c35.143,24.983 57.548,57.132 82.039,91.936c-1.934,3.792 -3.867,7.585 -5.86,11.492c-9.669,-1.896 -19.338,-3.792 -29.299,-5.746c-1.934,-15.169 -3.868,-30.339 -5.86,-45.968l-11.72,0c-1.934,3.792 -3.868,7.585 -5.86,11.492c-2.812,-7.301 -5.619,-14.603 -8.424,-21.907c-2.345,-6.099 -2.345,-6.099 -4.738,-12.322c-3.611,-9.594 -6.98,-19.275 -10.278,-28.977Z" style="fill:#d0b768;fill-rule:nonzero;"/><path d="M1527.01,1555.35c0,20.678 -5.616,29.273 -17.58,45.968l-11.72,0c-0.604,3.674 -1.208,7.348 -1.831,11.133c-1.329,3.911 -2.659,7.822 -4.028,11.851c-5.802,1.896 -11.603,3.792 -17.58,5.746l-0,17.238l-11.72,0c-5.801,14.221 -5.801,14.221 -11.72,28.73c-3.867,-1.896 -7.735,-3.792 -11.72,-5.746c40.429,-65.954 40.429,-65.954 64.459,-91.936l11.72,0c3.868,-7.585 7.735,-15.169 11.72,-22.984Z" style="fill:#c0b66c;fill-rule:nonzero;"/><path d="M1755.54,1256.56c3.867,1.896 7.735,3.793 11.719,5.746c-2.908,3.548 -5.816,7.096 -8.812,10.752c-26.658,32.587 -53.032,65.369 -79.086,98.422c-6.121,-18.005 -5.475,-22.924 -0,-40.222c7.735,-1.896 15.47,-3.792 23.439,-5.746c0.484,-5.451 0.967,-10.903 1.465,-16.52c4.395,-17.956 4.395,-17.956 15.016,-24.42c4.23,-1.659 8.461,-3.318 12.819,-5.028c8.033,-7.439 15.9,-15.063 23.44,-22.984Z" style="fill:#35aaaf;fill-rule:nonzero;"/><path d="M659.738,1078.43c1.934,5.689 3.868,11.377 5.86,17.238c-7.385,8.67 -14.847,17.278 -22.341,25.857c-4.147,4.8 -8.294,9.6 -12.566,14.545c-11.972,11.312 -11.972,11.312 -29.552,11.312c3.367,-20.487 10.862,-29.942 26.004,-44.172c3.618,-3.459 7.236,-6.918 10.964,-10.482c9.911,-8.552 9.911,-8.552 21.631,-14.298Z" style="fill:#e3b86a;fill-rule:nonzero;"/><path d="M941.014,377.42c1.934,7.585 3.868,15.169 5.86,22.984c-5.681,1.541 -11.361,3.081 -17.214,4.668c-5.922,2.252 -11.844,4.504 -17.946,6.824c-1.933,5.688 -3.867,11.377 -5.859,17.238c-15.471,-1.896 -30.941,-3.793 -46.88,-5.746c17.164,-13.409 34.49,-23.269 54.204,-32.68c7.841,-3.767 7.841,-3.767 15.841,-7.609c5.937,-2.811 5.937,-2.811 11.994,-5.679Z" style="fill:#2181b5;fill-rule:nonzero;"/><path d="M1292.61,233.77c5.801,1.896 11.602,3.792 17.579,5.746c-7.325,21.548 -18.656,30.133 -35.159,45.968c-13.969,16.409 -27.519,33.101 -41.088,49.829c-11.651,13.377 -11.651,13.377 -23.371,19.123c3.867,-9.481 7.735,-18.962 11.72,-28.73l11.72,-0c1.435,-4.052 2.87,-8.103 4.349,-12.278c8.394,-18.737 19.062,-33.468 31.542,-49.851c4.246,-5.607 8.491,-11.214 12.865,-16.991c4.872,-6.344 4.872,-6.344 9.843,-12.816Z" style="fill:#18a7d6;fill-rule:nonzero;"/><path d="M1210.57,888.814l5.86,-0l-0,149.395l11.72,0c1.933,7.585 3.867,15.17 5.86,22.984c-7.736,5.689 -15.471,11.377 -23.44,17.238l-0,-189.617Z" style="fill:#29aec7;fill-rule:nonzero;"/><path d="M1479.39,880.554c11.082,0.272 11.082,0.272 22.387,0.55c18.189,0.472 36.35,1.133 54.525,1.964c-5.802,5.688 -11.603,11.377 -17.58,17.238c-1.934,-1.897 -3.868,-3.793 -5.86,-5.746c-9.579,-0.5 -19.18,-0.615 -28.773,-0.562c-8.696,0.028 -8.696,0.028 -17.568,0.057c-6.1,0.048 -12.2,0.096 -18.484,0.145c-9.184,0.039 -9.184,0.039 -18.553,0.079c-15.18,0.068 -30.36,0.163 -45.54,0.281c-1.934,5.688 -3.868,11.377 -5.86,17.238c-17.946,6.823 -17.946,6.823 -35.159,11.492c27.238,-49.093 64.116,-45.169 116.465,-42.736Z" style="fill:#cafefe;fill-rule:nonzero;"/><path d="M911.714,745.164c0,22.616 -9.26,28.693 -23.439,45.968c-0.846,3.91 -1.692,7.821 -2.564,11.851c-5.054,17.071 -18.601,23.335 -32.596,34.117c-10.487,15.046 -10.487,15.046 -17.579,28.73c-1.934,-3.793 -3.868,-7.585 -5.86,-11.492c55.083,-82.743 55.083,-82.743 82.038,-109.174Z" style="fill:#15a2d3;fill-rule:nonzero;"/><path d="M1140.25,1946.08c-24.808,28.38 -53.5,42.068 -87.899,57.46c-1.933,-5.689 -3.867,-11.377 -5.86,-17.238c27.102,-17.238 27.102,-17.238 46.88,-17.238l-0,-11.492c18.915,-12.365 25.104,-12.646 46.879,-11.492Z" style="fill:#f2c739;fill-rule:nonzero;"/><path d="M1444.97,1934.59c21.255,4.158 39.217,12.523 58.599,21.906c6.043,2.882 12.086,5.763 18.313,8.732c16.364,9.309 27.673,18.861 40.286,32.568c-29.841,-6.706 -51.45,-16.97 -76.957,-33.466c-12.835,-7.926 -25.913,-13.419 -40.241,-18.248l0,-11.492Z" style="fill:#f3c539;fill-rule:nonzero;"/><path d="M1755.54,1273.8c-0,26.177 -12.984,43.028 -29.3,63.206c-14.832,12.769 -30.379,23.877 -46.879,34.476c9.453,-21.26 23.033,-37.522 38.089,-55.305c4.653,-5.526 9.306,-11.051 14.101,-16.744c12.269,-14.141 12.269,-14.141 23.989,-25.633Z" style="fill:#cbb76e;fill-rule:nonzero;"/><path d="M1444.97,1647.29c3.868,1.896 7.735,3.792 11.72,5.746c-10.116,11.865 -20.251,23.714 -30.398,35.553c-2.829,3.322 -5.658,6.644 -8.573,10.067c-17.406,20.276 -35.392,39.346 -54.787,57.808c11.578,-25.678 29.869,-45.134 48.184,-66.438c11.039,-12.996 11.039,-12.996 13.688,-26.934c0.854,-3.319 1.707,-6.637 2.587,-10.056c5.801,-1.896 11.602,-3.792 17.579,-5.746Z" style="fill:#55a897;fill-rule:nonzero;"/><path d="M1638.34,2049.51c24.976,2.721 35.636,5.541 52.74,22.984c8.041,5.352 16.228,10.5 24.538,15.442c4.192,2.511 8.385,5.022 12.704,7.609c3.18,1.874 6.36,3.748 9.637,5.679c-10.072,3.838 -10.072,3.838 -23.44,5.746c-13.002,-6.173 -13.002,-6.173 -26.369,-15.443c-4.586,-3.177 -9.171,-6.355 -13.895,-9.629c-13.129,-9.898 -24.933,-20.215 -35.915,-32.388Z" style="fill:#f2bf39;fill-rule:nonzero;"/><path d="M999.613,1463.41l23.44,0c1.934,5.689 3.867,11.377 5.86,17.238c3.867,1.896 7.735,3.792 11.719,5.746c1.934,5.689 3.868,11.377 5.86,17.238c5.802,3.792 11.603,7.585 17.58,11.492c6.959,20.829 6.959,20.829 11.72,40.222c-28.456,-26.159 -52.863,-55.556 -76.179,-86.19l0,-5.746Z" style="fill:#37aaac;fill-rule:nonzero;"/><path d="M1444.97,1273.8c11.354,1.796 11.354,1.796 23.44,5.746c1.934,5.689 3.867,11.377 5.86,17.238c5.801,1.896 11.602,3.793 17.58,5.746c1.933,9.481 3.867,18.962 5.859,28.73l11.72,0c9.889,13.647 9.889,13.647 17.58,28.73c-1.934,3.793 -3.868,7.585 -5.86,11.492c-12.719,-15.184 -25.407,-30.394 -38.089,-45.609c-3.634,-4.336 -7.267,-8.673 -11.011,-13.141c-3.436,-4.13 -6.873,-8.259 -10.415,-12.514c-3.191,-3.821 -6.383,-7.643 -9.671,-11.58c-6.993,-9.092 -6.993,-9.092 -6.993,-14.838Z" style="fill:#2fb1c8;fill-rule:nonzero;"/><path d="M378.463,1359.99c3.867,1.896 7.735,3.793 11.719,5.746c-2.47,2.289 -4.94,4.578 -7.485,6.936c-3.21,3.044 -6.42,6.088 -9.728,9.225c-4.793,4.5 -4.793,4.5 -9.683,9.09c-9.641,9.559 -9.641,9.559 -14.123,26.463l-11.72,0c-3.867,7.585 -7.735,15.17 -11.72,22.984l-17.579,0c3.867,-7.585 7.735,-15.169 11.72,-22.984l11.719,0c1.209,-3.081 2.418,-6.162 3.663,-9.337c11.456,-19.403 26.705,-32.636 43.217,-48.123Z" style="fill:#d6c287;fill-rule:nonzero;"/><path d="M782.796,1187.61c11.354,3.951 11.354,3.951 23.44,11.492c4.395,15.084 4.395,15.084 5.86,28.73c7.735,1.896 15.47,3.793 23.44,5.746c3.867,13.274 7.735,26.547 11.719,40.222c-14.663,-13.825 -28.577,-28.218 -42.118,-43.095c-2.983,-3.259 -5.967,-6.518 -9.041,-9.876c-8.057,-11.084 -10.832,-19.924 -13.3,-33.219Z" style="fill:#47a9a8;fill-rule:nonzero;"/><path d="M683.178,1066.94c17.404,2.845 17.404,2.845 35.159,5.746c0.726,4.148 1.451,8.296 2.198,12.57c3.607,15.915 8.845,29.934 15.382,44.89c-6.597,-5.5 -13.189,-11.008 -19.777,-16.519c-3.671,-3.067 -7.342,-6.133 -11.125,-9.293c-7.529,-6.447 -14.768,-13.224 -21.837,-20.156l-0,-17.238Z" style="fill:#44ada7;fill-rule:nonzero;"/><path d="M2089.56,607.26l5.86,-0c3.471,17.31 6.201,34.04 5.86,51.714c-11.353,14.724 -11.353,14.724 -23.439,22.984c-3.868,-1.896 -7.735,-3.793 -11.72,-5.746c7.735,-22.754 15.47,-45.509 23.439,-68.952Z" style="fill:#8cd1f4;fill-rule:nonzero;"/><path d="M1620.76,1446.17c-17.404,20.858 -34.808,41.716 -52.74,63.206c0,-17.238 0,-17.238 5.86,-22.984c0.239,-11.489 0.25,-22.986 0,-34.476c33.695,-12.21 33.695,-12.21 46.88,-5.746Z" style="fill:#41abab;fill-rule:nonzero;"/><path d="M905.855,1348.49c11.353,2.155 11.353,2.155 23.439,5.746c1.934,3.793 3.868,7.585 5.86,11.492c5.801,1.896 11.603,3.793 17.58,5.746l-0,22.984l11.72,0c1.933,9.481 3.867,18.962 5.86,28.73c-24.718,-22.812 -44.608,-47.74 -64.459,-74.698Z" style="fill:#3aa9ad;fill-rule:nonzero;"/><path d="M1222.29,1199.1c21.277,15.225 34.564,28.835 46.879,51.714c-5.801,2.845 -5.801,2.845 -11.72,5.746l0,-11.492c-7.735,1.896 -15.47,3.793 -23.439,5.746c1.933,-9.481 3.867,-18.961 5.859,-28.73c-11.602,5.689 -11.602,5.689 -23.439,11.492c-0.251,-9.573 -0.238,-19.156 -0,-28.73c1.934,-1.896 3.867,-3.792 5.86,-5.746Z" style="fill:#27afd0;fill-rule:nonzero;"/><path d="M2282.93,1348.49c12.715,24.934 12.97,37.257 12.453,64.643c-0.106,7.258 -0.212,14.517 -0.321,21.996c-0.136,5.54 -0.272,11.081 -0.412,16.789c-22.707,-27.293 -22.707,-27.293 -29.299,-40.222c5.801,-1.896 11.602,-3.792 17.579,-5.746l0,-57.46Z" style="fill:#b1d2d3;fill-rule:nonzero;"/><path d="M1825.86,2009.28c5.802,1.896 11.603,3.792 17.58,5.746c-15.47,18.962 -30.94,37.923 -46.879,57.46c-5.423,-21.269 -6.339,-26.631 -0,-45.968l23.44,-0c1.933,-5.689 3.867,-11.377 5.859,-17.238Z" style="fill:#f1b45e;fill-rule:nonzero;"/><path d="M1409.81,1699c3.41,10.953 3.41,10.953 5.86,22.984c-7.691,8.619 -7.691,8.619 -17.58,17.238c-2.719,6.044 -2.719,6.044 -5.494,12.21c-6.226,10.774 -6.226,10.774 -18.678,15.083c-5.439,0.712 -5.439,0.712 -10.987,1.437c8.261,-17.459 18.099,-32.143 30.032,-47.405c4.736,-6.088 4.736,-6.088 9.568,-12.3c2.402,-3.051 4.804,-6.103 7.279,-9.247Z" style="fill:#deb45f;fill-rule:nonzero;"/><path d="M1532.87,906.052c-0,22.591 -8.17,29.673 -23.44,45.967l-11.72,0l0,11.492c-11.719,9.338 -11.719,9.338 -23.439,17.238c-3.868,-1.896 -7.735,-3.792 -11.72,-5.746c23.205,-22.754 46.411,-45.508 70.319,-68.951Z" style="fill:#31b0c5;fill-rule:nonzero;"/><path d="M958.594,2061c-6.516,19.167 -8.575,20.594 -25.637,29.807c-3.551,1.978 -7.101,3.955 -10.759,5.993c-10.484,4.422 -10.484,4.422 -28.063,4.422l-0,-11.492c8.528,-4.818 17.078,-9.6 25.637,-14.365c4.759,-2.667 9.518,-5.333 14.421,-8.081c12.681,-6.284 12.681,-6.284 24.401,-6.284Z" style="fill:#f6d83a;fill-rule:nonzero;"/><path d="M554.26,1187.61c-1.099,10.415 -1.099,10.415 -5.86,22.984c-9.673,5.896 -19.453,11.625 -29.3,17.238c-13.333,14.778 -13.333,14.778 -23.439,28.73c-3.868,-1.896 -7.735,-3.792 -11.72,-5.746c54.319,-63.206 54.319,-63.206 70.319,-63.206Z" style="fill:#c6c59b;fill-rule:nonzero;"/><path d="M1321.91,1854.14c24.075,8.332 43.97,19.524 64.459,34.476l0,11.492c-29.195,-7.324 -44.684,-17.98 -64.459,-40.222l0,-5.746Z" style="fill:#fbd144;fill-rule:nonzero;"/><path d="M1913.76,1072.68l11.72,0c1.934,5.689 3.867,11.377 5.86,17.238l-23.44,0c-0.604,3.437 -1.208,6.874 -1.831,10.415c-4.549,14.192 -10.304,20.169 -21.608,29.807c-3.868,-1.896 -7.736,-3.792 -11.72,-5.746c6.547,-8.651 13.15,-17.263 19.777,-25.857c3.671,-4.799 7.342,-9.599 11.125,-14.544c3.338,-3.733 6.677,-7.466 10.117,-11.313Z" style="fill:#c0b974;fill-rule:nonzero;"/><path d="M1116.81,1612.81c38.508,28.73 38.508,28.73 46.88,57.46c-5.802,-1.896 -11.603,-3.792 -17.58,-5.746c-1.934,3.792 -3.868,7.585 -5.86,11.492c-2.812,-7.301 -5.619,-14.603 -8.424,-21.907c-2.345,-6.099 -2.345,-6.099 -4.738,-12.322c-3.611,-9.594 -6.98,-19.275 -10.278,-28.977Z" style="fill:#b3b778;fill-rule:nonzero;"/><path d="M1474.27,1595.57c5.801,1.896 11.602,3.792 17.58,5.746c-5.57,7.694 -11.196,15.348 -16.848,22.984c-3.127,4.266 -6.254,8.533 -9.476,12.929c-4.374,4.977 -4.374,4.977 -8.836,10.055l-11.72,0c1.934,-9.481 3.868,-18.962 5.86,-28.73l11.72,0l0,-11.492l11.72,0l-0,-11.492Z" style="fill:#26aab1;fill-rule:nonzero;"/><path d="M735.917,1141.64c17.58,17.238 35.16,34.476 52.739,51.714c-1.933,3.793 -3.867,7.585 -5.86,11.492c-3.867,-3.792 -7.735,-7.584 -11.719,-11.492c-7.735,-1.896 -15.471,-3.792 -23.44,-5.746c-3.868,-15.169 -7.735,-30.339 -11.72,-45.968Z" style="fill:#c3ba6e;fill-rule:nonzero;"/><path d="M1374.65,1043.95c3.868,3.793 7.735,7.585 11.72,11.492c-16.717,16.848 -33.113,32.426 -52.739,45.968c1.934,-7.584 3.868,-15.169 5.86,-22.984l11.72,0c1.692,-3.555 3.384,-7.11 5.127,-10.773c6.593,-12.211 6.593,-12.211 18.312,-23.703Z" style="fill:#e6fafa;fill-rule:nonzero;"/><path d="M1339.49,1756.46l23.44,-0c-8.454,19.34 -19.529,31.663 -35.16,45.968c-0.732,-16.52 -0.732,-16.52 0,-34.476c3.868,-3.792 7.735,-7.585 11.72,-11.492Z" style="fill:#3dadae;fill-rule:nonzero;"/><path d="M1286.75,1842.65l-0,17.238c-8.355,8.17 -8.355,8.17 -19.411,15.801c-3.603,2.578 -7.207,5.156 -10.919,7.811c-10.69,5.118 -10.69,5.118 -28.269,-0.628c7.691,-8.619 7.691,-8.619 17.579,-17.238l17.58,-0l0,-11.492c7.735,-3.792 15.47,-7.585 23.44,-11.492Z" style="fill:#f4d03c;fill-rule:nonzero;"/><path d="M2271.21,1423.19c8.702,5.689 8.702,5.689 17.579,11.492c-4.395,38.786 -4.395,38.786 -17.579,51.714c-1.934,-9.481 -3.868,-18.962 -5.86,-28.73c5.801,-1.896 11.602,-3.792 17.579,-5.746c-3.867,-9.481 -7.735,-18.962 -11.719,-28.73Z" style="fill:#eab962;fill-rule:nonzero;"/><path d="M1597.32,1411.7l41.019,0c-15.382,28.012 -15.382,28.012 -35.159,34.476c-1.934,-11.377 -3.868,-22.754 -5.86,-34.476Z" style="fill:#15b2c7;fill-rule:nonzero;"/><path d="M841.396,1273.8c21.909,15.265 33.107,26.323 41.019,51.714l-23.44,0c-5.86,-17.238 -11.72,-34.476 -17.579,-51.714Z" style="fill:#ccb66b;fill-rule:nonzero;"/><path d="M1884.46,1124.4c1.933,5.689 3.867,11.377 5.859,17.238c-9.668,7.585 -19.337,15.17 -29.299,22.984c-3.868,-1.896 -7.735,-3.792 -11.72,-5.746c15.382,-28.011 15.382,-28.011 35.16,-34.476Z" style="fill:#e1b757;fill-rule:nonzero;"/><path d="M1034.77,572.784c3.867,1.896 7.735,3.792 11.719,5.746c-3.327,7.461 -6.767,14.874 -10.254,22.265c-1.904,4.134 -3.808,8.267 -5.769,12.525c-8.701,13.115 -16.23,16.945 -30.856,22.67c7.813,-15.323 15.627,-30.646 23.44,-45.968l11.72,-0l-0,-17.238Z" style="fill:#16a5d5;fill-rule:nonzero;"/><path d="M1720.38,411.896c24.813,7.531 47.313,16.914 70.319,28.73c-14.455,5.076 -21.322,6.5 -35.984,1.279c-4.079,-2.2 -8.158,-4.4 -12.36,-6.666c-4.14,-2.185 -8.279,-4.37 -12.544,-6.621c-3.112,-1.726 -6.224,-3.452 -9.431,-5.23l0,-11.492Z" style="fill:#3483af;fill-rule:nonzero;"/><path d="M1157.83,400.404c3.867,1.896 7.735,3.792 11.72,5.746c-4.588,7.691 -9.239,15.346 -13.918,22.984c-2.583,4.266 -5.167,8.533 -7.828,12.928c-3.739,4.978 -3.739,4.978 -7.554,10.056l-11.72,-0c-1.934,3.792 -3.867,7.585 -5.86,11.492c3.591,-17.018 7.347,-25.171 17.58,-40.222l11.72,-0c1.934,-7.585 3.867,-15.17 5.86,-22.984Z" style="fill:#0c8fc3;fill-rule:nonzero;"/><path d="M1339.49,1095.67l5.86,0c3.662,16.161 3.662,16.161 5.86,34.476c-5.802,8.533 -5.802,8.533 -11.72,17.238c-5.801,-9.481 -11.603,-18.961 -17.58,-28.73c5.7,-7.776 11.567,-15.437 17.58,-22.984Z" style="fill:#26aecc;fill-rule:nonzero;"/><path d="M1345.35,934.782c1.934,7.584 3.867,15.169 5.86,22.983c-13.537,11.378 -27.073,22.755 -41.02,34.476c-3.867,-1.896 -7.735,-3.792 -11.719,-5.746c15.47,-17.065 30.94,-34.131 46.879,-51.713Z" style="fill:#d5fbfc;fill-rule:nonzero;"/><path d="M1433.25,273.992c26.106,11.377 26.106,11.377 52.74,22.984c-1.934,5.688 -3.868,11.377 -5.86,17.238l-17.58,-0c-1.934,-5.689 -3.868,-11.377 -5.86,-17.238c-11.721,-6.946 -11.721,-6.946 -23.44,-11.492l0,-11.492Z" style="fill:#2d88bb;fill-rule:nonzero;"/><path d="M601.139,538.308c1.934,3.792 3.868,7.584 5.86,11.492c-1.934,3.792 -3.867,7.584 -5.86,11.492c-12.109,2.379 -12.109,2.379 -26.736,3.591c-4.842,0.43 -9.684,0.859 -14.672,1.302c-5.609,0.422 -5.609,0.422 -11.331,0.853c16.719,-13.358 32.468,-21.552 52.739,-28.73Z" style="fill:#3987ba;fill-rule:nonzero;"/><path d="M993.753,2026.52c1.934,3.792 3.868,7.584 5.86,11.492c-7.735,1.896 -15.47,3.792 -23.44,5.746l0,11.492c-9.668,1.896 -19.337,3.792 -29.299,5.746c1.934,-5.689 3.867,-11.377 5.86,-17.238c20.876,-9.697 20.876,-9.697 41.019,-17.238Z" style="fill:#f2bf39;fill-rule:nonzero;"/><path d="M624.579,1848.39c13.551,0.718 13.551,0.718 29.299,5.746c10.988,16.879 10.988,16.879 17.58,34.476c-1.934,3.792 -3.867,7.585 -5.86,11.492c-6.854,-7.527 -13.686,-15.072 -20.509,-22.625c-3.808,-4.2 -7.615,-8.399 -11.537,-12.727c-8.973,-10.616 -8.973,-10.616 -8.973,-16.362Z" style="fill:#edb663;fill-rule:nonzero;"/><path d="M1474.27,1618.56c1.934,3.792 3.867,7.585 5.86,11.492c-1.934,5.689 -3.868,11.377 -5.86,17.238l-11.72,0c-3.868,9.481 -7.735,18.962 -11.72,28.73c-3.867,-1.896 -7.735,-3.792 -11.72,-5.746c4.752,-7.547 9.515,-15.088 14.284,-22.625c2.651,-4.2 5.303,-8.399 8.034,-12.726c6.982,-10.617 6.982,-10.617 12.842,-16.363Z" style="fill:#cdb46a;fill-rule:nonzero;"/><path d="M653.878,1015.23c10.233,15.052 13.989,23.204 17.58,40.222l-23.44,0c-0.249,-11.489 -0.239,-22.986 0,-34.476c1.934,-1.896 3.868,-3.792 5.86,-5.746Z" style="fill:#87d3f0;fill-rule:nonzero;"/><path d="M583.559,796.878c17.437,17.631 23.234,25.64 24.905,50.636c-0.483,6.044 -0.967,12.088 -1.465,18.316c-11.152,-16.404 -14.426,-25.394 -18.312,-44.173c-0.982,-4.644 -1.964,-9.288 -2.976,-14.073c-0.71,-3.533 -1.42,-7.066 -2.152,-10.706Z" style="fill:#1f82b8;fill-rule:nonzero;"/><path d="M1128.53,296.976c-1.934,5.688 -3.867,11.377 -5.86,17.238c-19.337,3.792 -38.675,7.585 -58.599,11.492c16.822,-16.495 40.218,-28.73 64.459,-28.73Z" style="fill:#2f84b5;fill-rule:nonzero;"/><path d="M425.342,1578.33c3.867,1.896 7.735,3.792 11.72,5.746l11.72,45.968c-28.568,-26.575 -28.568,-26.575 -35.16,-45.968c3.868,-1.896 7.735,-3.792 11.72,-5.746Z" style="fill:#f1b660;fill-rule:nonzero;"/><path d="M1931.34,1038.21c-9.523,33.04 -9.523,33.04 -29.3,45.968c-2.146,-25.955 -2.146,-25.955 8.058,-39.144c9.522,-6.824 9.522,-6.824 21.242,-6.824Z" style="fill:#2293ba;fill-rule:nonzero;"/><path d="M1444.97,1647.29c3.868,1.896 7.735,3.792 11.72,5.746c-9.669,11.377 -19.338,22.754 -29.299,34.476c-5.86,-11.492 -5.86,-11.492 -4.395,-23.343c1.45,-3.674 2.9,-7.348 4.395,-11.133c5.801,-1.896 11.602,-3.792 17.579,-5.746Z" style="fill:#63b19b;fill-rule:nonzero;"/><path d="M1316.05,1285.29c3.868,1.896 7.735,3.793 11.72,5.746c2.387,13.34 4.362,26.759 5.86,40.222c-14.801,-13.577 -22.785,-21.057 -29.3,-40.222c3.868,-1.896 7.736,-3.792 11.72,-5.746Z" style="fill:#dcfafc;fill-rule:nonzero;"/><path d="M1796.56,1222.08c-0,23.176 -9.428,33.529 -23.44,51.714l-11.72,0c7.69,-22.62 17.106,-35.781 35.16,-51.714Z" style="fill:#c5b971;fill-rule:nonzero;"/><path d="M1550.44,888.814c3.867,5.688 7.735,11.377 11.719,17.238c-17.403,14.221 -17.403,14.221 -35.159,28.73c10.255,-33.04 10.255,-33.04 23.44,-45.968Z" style="fill:#1cafce;fill-rule:nonzero;"/><path d="M941.014,377.42c1.934,7.585 3.868,15.169 5.86,22.984c-15.626,7.661 -24.417,3.856 -41.019,-0c11.507,-8.651 22.165,-16.614 35.159,-22.984Z" style="fill:#378abe;fill-rule:nonzero;"/><path d="M1028.91,337.198l-0,17.238c-10.255,6.105 -10.255,6.105 -23.44,11.492c-7.735,-1.896 -15.47,-3.792 -23.44,-5.746c15.471,-7.585 30.941,-15.17 46.88,-22.984Z" style="fill:#3084b4;fill-rule:nonzero;"/></svg>