<?xml version="1.0" encoding="UTF-8" standalone="no"?>
<!DOCTYPE svg PUBLIC "-//W3C//DTD SVG 1.1//EN" "http://www.w3.org/Graphics/SVG/1.1/DTD/svg11.dtd">
<!-- Generated by Microsoft Visio, SVG Export AUR-009 - Aurora Platform Azure Architecture cac.svg Page-1 -->
<svg xmlns="http://www.w3.org/2000/svg" xmlns:xlink="http://www.w3.org/1999/xlink" xmlns:ev="http://www.w3.org/2001/xml-events"
		xmlns:v="http://schemas.microsoft.com/visio/2003/SVGExtensions/" width="19.1897in" height="12.8017in"
		viewBox="0 0 1381.66 921.719" xml:space="preserve" color-interpolation-filters="sRGB" class="st9">
	<v:documentProperties v:langID="1033" v:metric="true" v:viewMarkup="false"/>

	<style type="text/css">
	<![CDATA[
		.st1 {fill:#eef2f6;stroke:#000000;stroke-width:1}
		.st2 {fill:#cbffff;stroke:#000000;stroke-dasharray:7,5;stroke-width:1}
		.st3 {fill:#000000;font-family:Aptos;font-size:0.833336em;font-weight:bold}
		.st4 {font-size:1em}
		.st5 {fill:#a9bed1;stroke:#000000;stroke-dasharray:7,5;stroke-width:1}
		.st6 {fill:#d8d8d8;stroke:#000000;stroke-dasharray:7,5;stroke-width:1}
		.st7 {stroke:#000000;stroke-linecap:round;stroke-linejoin:round;stroke-width:0.5}
		.st8 {fill:#ffffff;stroke:#000000;stroke-dasharray:7,5;stroke-width:1}
		.st9 {fill:none;fill-rule:evenodd;font-size:12px;overflow:visible;stroke-linecap:square;stroke-miterlimit:3}
	]]>
	</style>

	<g v:mID="0" v:index="1" v:groupContext="foregroundPage">
		<title>Page-1</title>
		<v:pageProperties v:drawingScale="0.0393701" v:pageScale="0.0393701" v:drawingUnits="24" v:shadowOffsetX="9"
				v:shadowOffsetY="-9"/>
		<v:layer v:name="Connector" v:index="0"/>
		<g id="shape298-1" v:mID="298" v:groupContext="shape" transform="translate(1,-227.772)">
			<title>Rectangle.298</title>
			<v:userDefs>
				<v:ud v:nameU="visVersion" v:val="VT0(15):26"/>
			</v:userDefs>
			<rect x="0" y="581.561" width="389.764" height="340.157" class="st1"/>
		</g>
		<g id="shape297-3" v:mID="297" v:groupContext="shape" transform="translate(494.228,-1)">
			<title>Rectangle.2280</title>
			<v:userDefs>
				<v:ud v:nameU="visVersion" v:val="VT0(15):26"/>
			</v:userDefs>
			<rect x="0" y="354.79" width="389.764" height="566.929" class="st1"/>
		</g>
		<g id="shape61-5" v:mID="61" v:groupContext="shape" transform="translate(701.971,-835.044)">
			<title>Rectangle.387</title>
			<desc>aurora-platform-charts</desc>
			<v:userDefs>
				<v:ud v:nameU="visVersion" v:val="VT0(15):26"/>
			</v:userDefs>
			<v:textBlock v:margins="rect(4,4,4,4)"/>
			<v:textRect cx="52.3885" cy="878.881" width="104.78" height="85.6752"/>
			<path d="M0 921.72 L104.78 921.72 L104.78 836.04 L0 836.04 L0 921.72 Z" class="st2"/>
			<text x="14.22" y="875.88" class="st3" v:langID="4105"><v:paragraph v:horizAlign="1"/><v:tabList/>aurora-platform-<tspan
						x="37.79" dy="1.2em" class="st4">charts</tspan></text>		</g>
		<g id="shape74-9" v:mID="74" v:groupContext="shape" transform="translate(379.937,-717.53)">
			<title>Rectangle.74</title>
			<desc>argocd-instance</desc>
			<v:userDefs>
				<v:ud v:nameU="visVersion" v:val="VT0(15):26"/>
			</v:userDefs>
			<v:textBlock v:margins="rect(4,4,4,4)" v:tabSpace="42.5197"/>
			<v:textRect cx="52.3885" cy="878.881" width="104.78" height="85.6752"/>
			<path d="M0 921.72 L104.78 921.72 L104.78 836.04 L0 836.04 L0 921.72 Z" class="st5"/>
			<text x="15.22" y="881.88" class="st3" v:langID="4105"><v:paragraph v:horizAlign="1"/><v:tabList/>argocd-instance</text>		</g>
		<g id="shape75-12" v:mID="75" v:groupContext="shape" transform="translate(507.496,-717.53)">
			<title>Rectangle.75</title>
			<desc>aurora-namespace</desc>
			<v:userDefs>
				<v:ud v:nameU="visVersion" v:val="VT0(15):26"/>
			</v:userDefs>
			<v:textBlock v:margins="rect(4,4,4,4)" v:tabSpace="42.5197"/>
			<v:textRect cx="52.3885" cy="878.881" width="104.78" height="85.6752"/>
			<path d="M0 921.72 L104.78 921.72 L104.78 836.04 L0 836.04 L0 921.72 Z" class="st5"/>
			<text x="9.03" y="881.88" class="st3" v:langID="4105"><v:paragraph v:horizAlign="1"/><v:tabList/>aurora-namespace</text>		</g>
		<g id="shape76-15" v:mID="76" v:groupContext="shape" transform="translate(250.855,-717.53)">
			<title>Rectangle.85</title>
			<desc>argocd-operator</desc>
			<v:userDefs>
				<v:ud v:nameU="visVersion" v:val="VT0(15):26"/>
			</v:userDefs>
			<v:textBlock v:margins="rect(4,4,4,4)" v:tabSpace="42.5197"/>
			<v:textRect cx="52.3885" cy="878.881" width="104.78" height="85.6752"/>
			<path d="M0 921.72 L104.78 921.72 L104.78 836.04 L0 836.04 L0 921.72 Z" class="st5"/>
			<text x="15.31" y="881.88" class="st3" v:langID="4105"><v:paragraph v:horizAlign="1"/><v:tabList/>argocd-operator</text>		</g>
		<g id="shape77-18" v:mID="77" v:groupContext="shape" transform="translate(635.055,-717.212)">
			<title>Rectangle.88</title>
			<desc>aurora-platform</desc>
			<v:userDefs>
				<v:ud v:nameU="visVersion" v:val="VT0(15):26"/>
			</v:userDefs>
			<v:textBlock v:margins="rect(4,4,4,4)" v:tabSpace="42.5197"/>
			<v:textRect cx="52.3885" cy="878.881" width="104.78" height="85.6752"/>
			<path d="M0 921.72 L104.78 921.72 L104.78 836.04 L0 836.04 L0 921.72 Z" class="st5"/>
			<text x="15.92" y="881.88" class="st3" v:langID="4105"><v:paragraph v:horizAlign="1"/><v:tabList/>aurora-platform</text>		</g>
		<g id="shape78-21" v:mID="78" v:groupContext="shape" transform="translate(762.614,-717.53)">
			<title>Rectangle.90</title>
			<desc>aurora-solution</desc>
			<v:userDefs>
				<v:ud v:nameU="visVersion" v:val="VT0(15):26"/>
			</v:userDefs>
			<v:textBlock v:margins="rect(4,4,4,4)" v:tabSpace="42.5197"/>
			<v:textRect cx="52.3885" cy="878.881" width="104.78" height="85.6752"/>
			<path d="M0 921.72 L104.78 921.72 L104.78 836.04 L0 836.04 L0 921.72 Z" class="st5"/>
			<text x="16.99" y="881.88" class="st3" v:langID="4105"><v:paragraph v:horizAlign="1"/><v:tabList/>aurora-solution</text>		</g>
		<g id="shape79-24" v:mID="79" v:groupContext="shape" transform="translate(890.173,-717.37)">
			<title>Rectangle.91</title>
			<desc>istio-custom-responses</desc>
			<v:userDefs>
				<v:ud v:nameU="visVersion" v:val="VT0(15):26"/>
			</v:userDefs>
			<v:textBlock v:margins="rect(4,4,4,4)" v:tabSpace="42.5197"/>
			<v:textRect cx="52.3885" cy="878.881" width="104.78" height="85.6752"/>
			<path d="M0 921.72 L104.78 921.72 L104.78 836.04 L0 836.04 L0 921.72 Z" class="st5"/>
			<text x="21.76" y="875.88" class="st3" v:langID="4105"><v:paragraph v:horizAlign="1"/><v:tabList/>istio-custom-<tspan
						x="28.55" dy="1.2em" class="st4">responses</tspan></text>		</g>
		<g id="shape80-28" v:mID="80" v:groupContext="shape" transform="translate(1017.73,-717.37)">
			<title>Rectangle.80</title>
			<desc>istio-ingress-gateway</desc>
			<v:userDefs>
				<v:ud v:nameU="visVersion" v:val="VT0(15):26"/>
			</v:userDefs>
			<v:textBlock v:margins="rect(4,4,4,4)" v:tabSpace="42.5197"/>
			<v:textRect cx="52.3885" cy="878.881" width="104.78" height="85.6752"/>
			<path d="M0 921.72 L104.78 921.72 L104.78 836.04 L0 836.04 L0 921.72 Z" class="st5"/>
			<text x="22.51" y="875.88" class="st3" v:langID="4105"><v:paragraph v:horizAlign="1"/><v:tabList/>istio-ingress-<tspan
						x="33.48" dy="1.2em" class="st4">gateway</tspan></text>		</g>
		<g id="shape81-32" v:mID="81" v:groupContext="shape" transform="translate(1147.31,-717.37)">
			<title>Rectangle.81</title>
			<desc>raw</desc>
			<v:userDefs>
				<v:ud v:nameU="visVersion" v:val="VT0(15):26"/>
			</v:userDefs>
			<v:textBlock v:margins="rect(4,4,4,4)" v:tabSpace="42.5197"/>
			<v:textRect cx="52.3885" cy="878.881" width="104.78" height="85.6752"/>
			<path d="M0 921.72 L104.78 921.72 L104.78 836.04 L0 836.04 L0 921.72 Z" class="st5"/>
			<text x="43.98" y="881.88" class="st3" v:langID="4105"><v:paragraph v:horizAlign="1"/><v:tabList/>raw</text>		</g>
		<g id="shape82-35" v:mID="82" v:groupContext="shape" transform="translate(143.493,-596.594)">
			<title>Rectangle.82</title>
			<desc>aurora-app</desc>
			<v:userDefs>
				<v:ud v:nameU="visVersion" v:val="VT0(15):26"/>
			</v:userDefs>
			<v:textBlock v:margins="rect(4,4,4,4)" v:tabSpace="42.5197"/>
			<v:textRect cx="52.3885" cy="878.881" width="104.78" height="85.6752"/>
			<path d="M0 921.72 L104.78 921.72 L104.78 836.04 L0 836.04 L0 921.72 Z" class="st6"/>
			<text x="27.08" y="881.88" class="st3" v:langID="4105"><v:paragraph v:horizAlign="1"/><v:tabList/>aurora-app</text>		</g>
		<g id="shape83-38" v:mID="83" v:groupContext="shape" transform="translate(635.055,-596.276)">
			<title>Rectangle.1091.83</title>
			<desc>aurora-core</desc>
			<v:userDefs>
				<v:ud v:nameU="visVersion" v:val="VT0(15):26"/>
			</v:userDefs>
			<v:textBlock v:margins="rect(4,4,4,4)" v:tabSpace="42.5197"/>
			<v:textRect cx="52.3885" cy="878.881" width="104.78" height="85.6752"/>
			<path d="M0 921.72 L104.78 921.72 L104.78 836.04 L0 836.04 L0 921.72 Z" class="st6"/>
			<text x="25.47" y="881.88" class="st3" v:langID="4105"><v:paragraph v:horizAlign="1"/><v:tabList/>aurora-core</text>		</g>
		<g id="shape84-41" v:mID="84" v:groupContext="shape" transform="translate(1148.13,-596.276)">
			<title>Rectangle.1091.84</title>
			<desc>aurora-mgmt</desc>
			<v:userDefs>
				<v:ud v:nameU="visVersion" v:val="VT0(15):26"/>
			</v:userDefs>
			<v:textBlock v:margins="rect(4,4,4,4)" v:tabSpace="42.5197"/>
			<v:textRect cx="52.3885" cy="878.881" width="104.78" height="85.6752"/>
			<path d="M0 921.72 L104.78 921.72 L104.78 836.04 L0 836.04 L0 921.72 Z" class="st6"/>
			<text x="22.48" y="881.88" class="st3" v:langID="4105"><v:paragraph v:horizAlign="1"/><v:tabList/>aurora-mgmt</text>		</g>
		<g id="shape85-44" v:mID="85" v:groupContext="shape" v:layerMember="0" transform="translate(815.003,-803.205)">
			<title>Dynamic connector.93</title>
			<path d="M0 921.72 L0 907.59 L-60.64 907.59 L-60.64 889.88" class="st7"/>
		</g>
		<g id="shape86-47" v:mID="86" v:groupContext="shape" v:layerMember="0" transform="translate(687.443,-802.887)">
			<title>Dynamic connector.86</title>
			<path d="M0 921.72 L0 907.23 L66.92 907.23 L66.92 889.56" class="st7"/>
		</g>
		<g id="shape87-50" v:mID="87" v:groupContext="shape" v:layerMember="0" transform="translate(942.562,-803.046)">
			<title>Dynamic connector.87</title>
			<path d="M0 921.72 L0 907.28 L-188.2 907.28 L-188.2 889.72" class="st7"/>
		</g>
		<g id="shape88-53" v:mID="88" v:groupContext="shape" v:layerMember="0" transform="translate(1070.12,-803.046)">
			<title>Dynamic connector.88</title>
			<path d="M0 921.72 L0 907.28 L-315.76 907.28 L-315.76 889.72" class="st7"/>
		</g>
		<g id="shape110-56" v:mID="110" v:groupContext="shape" v:layerMember="0" transform="translate(1199.7,-803.046)">
			<title>Dynamic connector.110</title>
			<path d="M0 921.72 L0 907.28 L-445.34 907.28 L-445.34 889.72" class="st7"/>
		</g>
		<g id="shape111-59" v:mID="111" v:groupContext="shape" v:layerMember="0" transform="translate(559.884,-803.205)">
			<title>Dynamic connector.111</title>
			<path d="M0 921.72 L0 907.46 L194.48 907.46 L194.48 889.88" class="st7"/>
		</g>
		<g id="shape112-62" v:mID="112" v:groupContext="shape" v:layerMember="0" transform="translate(432.325,-803.205)">
			<title>Dynamic connector.112</title>
			<path d="M0 921.72 L0 907.46 L322.03 907.46 L322.03 889.88" class="st7"/>
		</g>
		<g id="shape113-65" v:mID="113" v:groupContext="shape" v:layerMember="0" transform="translate(303.244,-803.205)">
			<title>Dynamic connector.113</title>
			<path d="M0 921.72 L0 907.46 L451.12 907.46 L451.12 889.88" class="st7"/>
		</g>
		<g id="shape114-68" v:mID="114" v:groupContext="shape" transform="translate(1020.76,-468.081)">
			<title>Rectangle.114</title>
			<desc>argo-foundation</desc>
			<v:userDefs>
				<v:ud v:nameU="visVersion" v:val="VT0(15):26"/>
			</v:userDefs>
			<v:textBlock v:margins="rect(4,4,4,4)" v:tabSpace="42.5197"/>
			<v:textRect cx="52.3885" cy="878.881" width="104.78" height="85.6752"/>
			<path d="M0 921.72 L104.78 921.72 L104.78 836.04 L0 836.04 L0 921.72 Z" class="st6"/>
			<text x="15.75" y="881.88" class="st3" v:langID="4105"><v:paragraph v:horizAlign="1"/><v:tabList/>argo-foundation</text>		</g>
		<g id="shape115-71" v:mID="115" v:groupContext="shape" transform="translate(1148.32,-467.763)">
			<title>Rectangle.115</title>
			<desc>argo-operator</desc>
			<v:userDefs>
				<v:ud v:nameU="visVersion" v:val="VT0(15):26"/>
			</v:userDefs>
			<v:textBlock v:margins="rect(4,4,4,4)" v:tabSpace="42.5197"/>
			<v:textRect cx="52.3885" cy="878.881" width="104.78" height="85.6752"/>
			<path d="M0 921.72 L104.78 921.72 L104.78 836.04 L0 836.04 L0 921.72 Z" class="st6"/>
			<text x="20.99" y="881.88" class="st3" v:langID="4105"><v:paragraph v:horizAlign="1"/><v:tabList/>argo-operator</text>		</g>
		<g id="shape116-74" v:mID="116" v:groupContext="shape" transform="translate(1275.88,-467.763)">
			<title>Rectangle.116</title>
			<desc>bill-of-landing</desc>
			<v:userDefs>
				<v:ud v:nameU="visVersion" v:val="VT0(15):26"/>
			</v:userDefs>
			<v:textBlock v:margins="rect(4,4,4,4)" v:tabSpace="42.5197"/>
			<v:textRect cx="52.3885" cy="878.881" width="104.78" height="85.6752"/>
			<path d="M0 921.72 L104.78 921.72 L104.78 836.04 L0 836.04 L0 921.72 Z" class="st6"/>
			<text x="20.36" y="881.88" class="st3" v:langID="4105"><v:paragraph v:horizAlign="1"/><v:tabList/>bill-of-landing</text>		</g>
		<g id="shape117-77" v:mID="117" v:groupContext="shape" v:layerMember="0" transform="translate(1200.51,-681.951)">
			<title>Dynamic connector.117</title>
			<path d="M0 921.72 L0 911.09 L-513.07 911.09 L-513.07 886.46" class="st7"/>
		</g>
		<g id="shape118-80" v:mID="118" v:groupContext="shape" v:layerMember="0" transform="translate(195.882,-682.269)">
			<title>Dynamic connector.118</title>
			<path d="M0 921.72 L0 911.09 L491.56 911.09 L491.56 886.78" class="st7"/>
		</g>
		<g id="shape119-83" v:mID="119" v:groupContext="shape" v:layerMember="0" transform="translate(680.357,-681.951)">
			<title>Dynamic connector.119</title>
			<path d="M7.09 921.72 L7.09 886.46" class="st7"/>
		</g>
		<g id="shape120-86" v:mID="120" v:groupContext="shape" v:layerMember="0" transform="translate(1328.27,-553.438)">
			<title>Dynamic connector.120</title>
			<path d="M0 921.72 L0 910.06 L-127.76 910.06 L-127.76 878.88" class="st7"/>
		</g>
		<g id="shape121-89" v:mID="121" v:groupContext="shape" v:layerMember="0" transform="translate(1073.15,-553.756)">
			<title>Dynamic connector.121</title>
			<path d="M0 921.72 L0 910.38 L127.36 910.38 L127.36 879.2" class="st7"/>
		</g>
		<g id="shape188-92" v:mID="188" v:groupContext="shape" v:layerMember="0" transform="translate(1207.7,-553.438)">
			<title>Dynamic connector.188</title>
			<path d="M-6.99 921.72 L-7.19 878.88" class="st7"/>
		</g>
		<g id="shape271-95" v:mID="271" v:groupContext="shape" transform="translate(510.528,-468.081)">
			<title>Rectangle.271</title>
			<desc>aad-pod-identity</desc>
			<v:userDefs>
				<v:ud v:nameU="visVersion" v:val="VT0(15):26"/>
			</v:userDefs>
			<v:textBlock v:margins="rect(4,4,4,4)" v:tabSpace="42.5197"/>
			<v:textRect cx="52.3885" cy="878.881" width="104.78" height="85.6752"/>
			<path d="M0 921.72 L104.78 921.72 L104.78 836.04 L0 836.04 L0 921.72 Z" class="st8"/>
			<text x="14.5" y="881.88" class="st3" v:langID="4105"><v:paragraph v:horizAlign="1"/><v:tabList/>aad-pod-identity</text>		</g>
		<g id="shape272-98" v:mID="272" v:groupContext="shape" transform="translate(638.087,-467.763)">
			<title>Rectangle.272</title>
			<desc>aurora-controller</desc>
			<v:userDefs>
				<v:ud v:nameU="visVersion" v:val="VT0(15):26"/>
			</v:userDefs>
			<v:textBlock v:margins="rect(4,4,4,4)" v:tabSpace="42.5197"/>
			<v:textRect cx="52.3885" cy="878.881" width="104.78" height="85.6752"/>
			<path d="M0 921.72 L104.78 921.72 L104.78 836.04 L0 836.04 L0 921.72 Z" class="st8"/>
			<text x="13.12" y="881.88" class="st3" v:langID="4105"><v:paragraph v:horizAlign="1"/><v:tabList/>aurora-controller</text>		</g>
		<g id="shape273-101" v:mID="273" v:groupContext="shape" transform="translate(765.646,-467.763)">
			<title>Rectangle.273</title>
			<desc>cert-manager</desc>
			<v:userDefs>
				<v:ud v:nameU="visVersion" v:val="VT0(15):26"/>
			</v:userDefs>
			<v:textBlock v:margins="rect(4,4,4,4)" v:tabSpace="42.5197"/>
			<v:textRect cx="52.3885" cy="878.881" width="104.78" height="85.6752"/>
			<path d="M0 921.72 L104.78 921.72 L104.78 836.04 L0 836.04 L0 921.72 Z" class="st8"/>
			<text x="21.5" y="881.88" class="st3" v:langID="4105"><v:paragraph v:horizAlign="1"/><v:tabList/>cert-manager</text>		</g>
		<g id="shape274-104" v:mID="274" v:groupContext="shape" transform="translate(510.528,-354.695)">
			<title>Rectangle.274</title>
			<desc>cidr-allocator</desc>
			<v:userDefs>
				<v:ud v:nameU="visVersion" v:val="VT0(15):26"/>
			</v:userDefs>
			<v:textBlock v:margins="rect(4,4,4,4)" v:tabSpace="42.5197"/>
			<v:textRect cx="52.3885" cy="878.881" width="104.78" height="85.6752"/>
			<path d="M0 921.72 L104.78 921.72 L104.78 836.04 L0 836.04 L0 921.72 Z" class="st8"/>
			<text x="21.25" y="881.88" class="st3" v:langID="4105"><v:paragraph v:horizAlign="1"/><v:tabList/>cidr-allocator</text>		</g>
		<g id="shape275-107" v:mID="275" v:groupContext="shape" transform="translate(638.087,-354.377)">
			<title>Rectangle.275</title>
			<desc>cilium</desc>
			<v:userDefs>
				<v:ud v:nameU="visVersion" v:val="VT0(15):26"/>
			</v:userDefs>
			<v:textBlock v:margins="rect(4,4,4,4)" v:tabSpace="42.5197"/>
			<v:textRect cx="52.3885" cy="878.881" width="104.78" height="85.6752"/>
			<path d="M0 921.72 L104.78 921.72 L104.78 836.04 L0 836.04 L0 921.72 Z" class="st8"/>
			<text x="38.13" y="881.88" class="st3" v:langID="4105"><v:paragraph v:horizAlign="1"/><v:tabList/>cilium</text>		</g>
		<g id="shape276-110" v:mID="276" v:groupContext="shape" transform="translate(765.646,-354.377)">
			<title>Rectangle.276</title>
			<desc>fluent-operator</desc>
			<v:userDefs>
				<v:ud v:nameU="visVersion" v:val="VT0(15):26"/>
			</v:userDefs>
			<v:textBlock v:margins="rect(4,4,4,4)" v:tabSpace="42.5197"/>
			<v:textRect cx="52.3885" cy="878.881" width="104.78" height="85.6752"/>
			<path d="M0 921.72 L104.78 921.72 L104.78 836.04 L0 836.04 L0 921.72 Z" class="st8"/>
			<text x="17.5" y="881.88" class="st3" v:langID="4105"><v:paragraph v:horizAlign="1"/><v:tabList/>fluent-operator</text>		</g>
		<g id="shape277-113" v:mID="277" v:groupContext="shape" transform="translate(510.528,-241.309)">
			<title>Rectangle.277</title>
			<desc>gatekeeper</desc>
			<v:userDefs>
				<v:ud v:nameU="visVersion" v:val="VT0(15):26"/>
			</v:userDefs>
			<v:textBlock v:margins="rect(4,4,4,4)" v:tabSpace="42.5197"/>
			<v:textRect cx="52.3885" cy="878.881" width="104.78" height="85.6752"/>
			<path d="M0 921.72 L104.78 921.72 L104.78 836.04 L0 836.04 L0 921.72 Z" class="st8"/>
			<text x="26.72" y="881.88" class="st3" v:langID="4105"><v:paragraph v:horizAlign="1"/><v:tabList/>gatekeeper</text>		</g>
		<g id="shape278-116" v:mID="278" v:groupContext="shape" transform="translate(638.087,-240.991)">
			<title>Rectangle.278</title>
			<desc>kubecost</desc>
			<v:userDefs>
				<v:ud v:nameU="visVersion" v:val="VT0(15):26"/>
			</v:userDefs>
			<v:textBlock v:margins="rect(4,4,4,4)" v:tabSpace="42.5197"/>
			<v:textRect cx="52.3885" cy="878.881" width="104.78" height="85.6752"/>
			<path d="M0 921.72 L104.78 921.72 L104.78 836.04 L0 836.04 L0 921.72 Z" class="st8"/>
			<text x="31.13" y="881.88" class="st3" v:langID="4105"><v:paragraph v:horizAlign="1"/><v:tabList/>kubecost</text>		</g>
		<g id="shape279-119" v:mID="279" v:groupContext="shape" transform="translate(765.646,-240.991)">
			<title>Rectangle.279</title>
			<desc>kubernetes-event-exporter</desc>
			<v:userDefs>
				<v:ud v:nameU="visVersion" v:val="VT0(15):26"/>
			</v:userDefs>
			<v:textBlock v:margins="rect(4,4,4,4)" v:tabSpace="42.5197"/>
			<v:textRect cx="52.3885" cy="878.881" width="104.78" height="85.6752"/>
			<path d="M0 921.72 L104.78 921.72 L104.78 836.04 L0 836.04 L0 921.72 Z" class="st8"/>
			<text x="10.33" y="875.88" class="st3" v:langID="4105"><v:paragraph v:horizAlign="1"/><v:tabList/>kubernetes-event-<tspan
						x="33.08" dy="1.2em" class="st4">exporter</tspan></text>		</g>
		<g id="shape280-123" v:mID="280" v:groupContext="shape" transform="translate(510.528,-128.877)">
			<title>Rectangle.280</title>
			<desc>ntp</desc>
			<v:userDefs>
				<v:ud v:nameU="visVersion" v:val="VT0(15):26"/>
			</v:userDefs>
			<v:textBlock v:margins="rect(4,4,4,4)" v:tabSpace="42.5197"/>
			<v:textRect cx="52.3885" cy="878.881" width="104.78" height="85.6752"/>
			<path d="M0 921.72 L104.78 921.72 L104.78 836.04 L0 836.04 L0 921.72 Z" class="st8"/>
			<text x="44.78" y="881.88" class="st3" v:langID="4105"><v:paragraph v:horizAlign="1"/><v:tabList/>ntp</text>		</g>
		<g id="shape281-126" v:mID="281" v:groupContext="shape" transform="translate(638.087,-128.559)">
			<title>Rectangle.281</title>
			<desc>podtracker</desc>
			<v:userDefs>
				<v:ud v:nameU="visVersion" v:val="VT0(15):26"/>
			</v:userDefs>
			<v:textBlock v:margins="rect(4,4,4,4)" v:tabSpace="42.5197"/>
			<v:textRect cx="52.3885" cy="878.881" width="104.78" height="85.6752"/>
			<path d="M0 921.72 L104.78 921.72 L104.78 836.04 L0 836.04 L0 921.72 Z" class="st8"/>
			<text x="27.24" y="881.88" class="st3" v:langID="4105"><v:paragraph v:horizAlign="1"/><v:tabList/>podtracker</text>		</g>
		<g id="shape282-129" v:mID="282" v:groupContext="shape" transform="translate(765.646,-128.559)">
			<title>Rectangle.282</title>
			<desc>priority-classes</desc>
			<v:userDefs>
				<v:ud v:nameU="visVersion" v:val="VT0(15):26"/>
			</v:userDefs>
			<v:textBlock v:margins="rect(4,4,4,4)" v:tabSpace="42.5197"/>
			<v:textRect cx="52.3885" cy="878.881" width="104.78" height="85.6752"/>
			<path d="M0 921.72 L104.78 921.72 L104.78 836.04 L0 836.04 L0 921.72 Z" class="st8"/>
			<text x="16.77" y="881.88" class="st3" v:langID="4105"><v:paragraph v:horizAlign="1"/><v:tabList/>priority-classes</text>		</g>
		<g id="shape283-132" v:mID="283" v:groupContext="shape" transform="translate(510.528,-14.5374)">
			<title>Rectangle.283</title>
			<desc>prometheus</desc>
			<v:userDefs>
				<v:ud v:nameU="visVersion" v:val="VT0(15):26"/>
			</v:userDefs>
			<v:textBlock v:margins="rect(4,4,4,4)" v:tabSpace="42.5197"/>
			<v:textRect cx="52.3885" cy="878.881" width="104.78" height="85.6752"/>
			<path d="M0 921.72 L104.78 921.72 L104.78 836.04 L0 836.04 L0 921.72 Z" class="st8"/>
			<text x="24.58" y="881.88" class="st3" v:langID="4105"><v:paragraph v:horizAlign="1"/><v:tabList/>prometheus</text>		</g>
		<g id="shape284-135" v:mID="284" v:groupContext="shape" transform="translate(638.087,-14.2195)">
			<title>Rectangle.284</title>
			<desc>vault-agent</desc>
			<v:userDefs>
				<v:ud v:nameU="visVersion" v:val="VT0(15):26"/>
			</v:userDefs>
			<v:textBlock v:margins="rect(4,4,4,4)" v:tabSpace="42.5197"/>
			<v:textRect cx="52.3885" cy="878.881" width="104.78" height="85.6752"/>
			<path d="M0 921.72 L104.78 921.72 L104.78 836.04 L0 836.04 L0 921.72 Z" class="st8"/>
			<text x="26.53" y="881.88" class="st3" v:langID="4105"><v:paragraph v:horizAlign="1"/><v:tabList/>vault-agent</text>		</g>
		<g id="shape285-138" v:mID="285" v:groupContext="shape" transform="translate(765.646,-14.2195)">
			<title>Rectangle.285</title>
			<desc>velero</desc>
			<v:userDefs>
				<v:ud v:nameU="visVersion" v:val="VT0(15):26"/>
			</v:userDefs>
			<v:textBlock v:margins="rect(4,4,4,4)" v:tabSpace="42.5197"/>
			<v:textRect cx="52.3885" cy="878.881" width="104.78" height="85.6752"/>
			<path d="M0 921.72 L104.78 921.72 L104.78 836.04 L0 836.04 L0 921.72 Z" class="st8"/>
			<text x="38.17" y="881.88" class="st3" v:langID="4105"><v:paragraph v:horizAlign="1"/><v:tabList/>velero</text>		</g>
		<g id="shape286-141" v:mID="286" v:groupContext="shape" transform="translate(15.9342,-469.034)">
			<title>Rectangle.286</title>
			<desc>argo-controller</desc>
			<v:userDefs>
				<v:ud v:nameU="visVersion" v:val="VT0(15):26"/>
			</v:userDefs>
			<v:textBlock v:margins="rect(4,4,4,4)" v:tabSpace="42.5197"/>
			<v:textRect cx="52.3885" cy="878.881" width="104.78" height="85.6752"/>
			<path d="M0 921.72 L104.78 921.72 L104.78 836.04 L0 836.04 L0 921.72 Z" class="st8"/>
			<text x="18.08" y="881.88" class="st3" v:langID="4105"><v:paragraph v:horizAlign="1"/><v:tabList/>argo-controller</text>		</g>
		<g id="shape287-144" v:mID="287" v:groupContext="shape" transform="translate(143.493,-468.717)">
			<title>Rectangle.287</title>
			<desc>argo-workflow</desc>
			<v:userDefs>
				<v:ud v:nameU="visVersion" v:val="VT0(15):26"/>
			</v:userDefs>
			<v:textBlock v:margins="rect(4,4,4,4)" v:tabSpace="42.5197"/>
			<v:textRect cx="52.3885" cy="878.881" width="104.78" height="85.6752"/>
			<path d="M0 921.72 L104.78 921.72 L104.78 836.04 L0 836.04 L0 921.72 Z" class="st8"/>
			<text x="19.64" y="881.88" class="st3" v:langID="4105"><v:paragraph v:horizAlign="1"/><v:tabList/>argo-workflow</text>		</g>
		<g id="shape288-147" v:mID="288" v:groupContext="shape" transform="translate(271.053,-468.717)">
			<title>Rectangle.288</title>
			<desc>elastic</desc>
			<v:userDefs>
				<v:ud v:nameU="visVersion" v:val="VT0(15):26"/>
			</v:userDefs>
			<v:textBlock v:margins="rect(4,4,4,4)" v:tabSpace="42.5197"/>
			<v:textRect cx="52.3885" cy="878.881" width="104.78" height="85.6752"/>
			<path d="M0 921.72 L104.78 921.72 L104.78 836.04 L0 836.04 L0 921.72 Z" class="st8"/>
			<text x="36.93" y="881.88" class="st3" v:langID="4105"><v:paragraph v:horizAlign="1"/><v:tabList/>elastic</text>		</g>
		<g id="shape289-150" v:mID="289" v:groupContext="shape" transform="translate(15.9342,-355.649)">
			<title>Rectangle.289</title>
			<desc>istio</desc>
			<v:userDefs>
				<v:ud v:nameU="visVersion" v:val="VT0(15):26"/>
			</v:userDefs>
			<v:textBlock v:margins="rect(4,4,4,4)" v:tabSpace="42.5197"/>
			<v:textRect cx="52.3885" cy="878.881" width="104.78" height="85.6752"/>
			<path d="M0 921.72 L104.78 921.72 L104.78 836.04 L0 836.04 L0 921.72 Z" class="st8"/>
			<text x="42.49" y="881.88" class="st3" v:langID="4105"><v:paragraph v:horizAlign="1"/><v:tabList/>istio</text>		</g>
		<g id="shape290-153" v:mID="290" v:groupContext="shape" transform="translate(143.493,-355.331)">
			<title>Rectangle.290</title>
			<desc>kiali</desc>
			<v:userDefs>
				<v:ud v:nameU="visVersion" v:val="VT0(15):26"/>
			</v:userDefs>
			<v:textBlock v:margins="rect(4,4,4,4)" v:tabSpace="42.5197"/>
			<v:textRect cx="52.3885" cy="878.881" width="104.78" height="85.6752"/>
			<path d="M0 921.72 L104.78 921.72 L104.78 836.04 L0 836.04 L0 921.72 Z" class="st8"/>
			<text x="42.8" y="881.88" class="st3" v:langID="4105"><v:paragraph v:horizAlign="1"/><v:tabList/>kiali</text>		</g>
		<g id="shape291-156" v:mID="291" v:groupContext="shape" transform="translate(271.053,-355.331)">
			<title>Rectangle.291</title>
			<desc>sidecar-terminator</desc>
			<v:userDefs>
				<v:ud v:nameU="visVersion" v:val="VT0(15):26"/>
			</v:userDefs>
			<v:textBlock v:margins="rect(4,4,4,4)" v:tabSpace="42.5197"/>
			<v:textRect cx="52.3885" cy="878.881" width="104.78" height="85.6752"/>
			<path d="M0 921.72 L104.78 921.72 L104.78 836.04 L0 836.04 L0 921.72 Z" class="st8"/>
			<text x="9.38" y="881.88" class="st3" v:langID="4105"><v:paragraph v:horizAlign="1"/><v:tabList/>sidecar-terminator</text>		</g>
		<g id="shape292-159" v:mID="292" v:groupContext="shape" transform="translate(15.9342,-241.309)">
			<title>Rectangle.292</title>
			<desc>solr-operator</desc>
			<v:userDefs>
				<v:ud v:nameU="visVersion" v:val="VT0(15):26"/>
			</v:userDefs>
			<v:textBlock v:margins="rect(4,4,4,4)" v:tabSpace="42.5197"/>
			<v:textRect cx="52.3885" cy="878.881" width="104.78" height="85.6752"/>
			<path d="M0 921.72 L104.78 921.72 L104.78 836.04 L0 836.04 L0 921.72 Z" class="st8"/>
			<text x="22.24" y="881.88" class="st3" v:langID="4105"><v:paragraph v:horizAlign="1"/><v:tabList/>solr-operator</text>		</g>
		<g id="shape299-162" v:mID="299" v:groupContext="shape" v:layerMember="0" transform="translate(188.795,-567.929)">
			<title>Dynamic connector.299</title>
			<path d="M7.09 921.72 L7.09 893.05" class="st7"/>
		</g>
		<g id="shape300-165" v:mID="300" v:groupContext="shape" v:layerMember="0" transform="translate(691.059,-567.929)">
			<title>Dynamic connector.300</title>
			<path d="M-6.25 921.72 L-7.92 893.37" class="st7"/>
		</g>
	</g>
</svg>
