<?xml version="1.0" encoding="UTF-8" standalone="no"?>
<!DOCTYPE svg PUBLIC "-//W3C//DTD SVG 1.1//EN" "http://www.w3.org/Graphics/SVG/1.1/DTD/svg11.dtd">
<!-- Generated by Microsoft Visio, SVG Export AUR-009 - Aurora Platform Azure Architecture D.svg Page-1 -->
<svg xmlns="http://www.w3.org/2000/svg" xmlns:xlink="http://www.w3.org/1999/xlink" xmlns:ev="http://www.w3.org/2001/xml-events"
		xmlns:v="http://schemas.microsoft.com/visio/2003/SVGExtensions/" width="9.71282in" height="7.16754in"
		viewBox="0 0 699.323 516.063" xml:space="preserve" color-interpolation-filters="sRGB" class="st9">
	<v:documentProperties v:langID="1033" v:metric="true" v:viewMarkup="false"/>

	<style type="text/css">
	<![CDATA[
		.st1 {fill:#f7efde;stroke:#000000;stroke-dasharray:7,5;stroke-width:1}
		.st2 {fill:#000000;font-family:Aptos;font-size:0.833336em;font-weight:bold}
		.st3 {fill:#cbffff;stroke:#000000;stroke-dasharray:7,5;stroke-width:1}
		.st4 {fill:#a9bed1;stroke:#000000;stroke-dasharray:7,5;stroke-width:1}
		.st5 {font-size:1em}
		.st6 {stroke:#000000;stroke-linecap:round;stroke-linejoin:round;stroke-width:0.5}
		.st7 {fill:#a5a5a5;stroke:#000000;stroke-dasharray:7,5;stroke-width:1}
		.st8 {fill:#d8d8d8;stroke:#000000;stroke-dasharray:7,5;stroke-width:1}
		.st9 {fill:none;fill-rule:evenodd;font-size:12px;overflow:visible;stroke-linecap:square;stroke-miterlimit:3}
	]]>
	</style>

	<g v:mID="0" v:index="1" v:groupContext="foregroundPage">
		<title>Page-1</title>
		<v:pageProperties v:drawingScale="0.0393701" v:pageScale="0.0393701" v:drawingUnits="24" v:shadowOffsetX="9"
				v:shadowOffsetY="-9"/>
		<v:layer v:name="Connector" v:index="0"/>
		<g id="shape66-1" v:mID="66" v:groupContext="shape" transform="translate(570.764,-1)">
			<title>Rectangle.66</title>
			<desc>C.S.P</desc>
			<v:userDefs>
				<v:ud v:nameU="visVersion" v:val="VT0(15):26"/>
			</v:userDefs>
			<v:textBlock v:margins="rect(4,4,4,4)" v:tabSpace="42.5197" v:verticalAlign="0"/>
			<v:textRect cx="63.7795" cy="459.727" width="127.56" height="112.672"/>
			<path d="M0 516.06 L127.56 516.06 L127.56 403.39 L0 403.39 L0 516.06 Z" class="st1"/>
			<text x="51.23" y="416.39" class="st2" v:langID="4105"><v:paragraph v:horizAlign="1"/><v:tabList/>C.S.P</text>		</g>
		<g id="shape65-4" v:mID="65" v:groupContext="shape" transform="translate(434.701,-1)">
			<title>Rectangle.65</title>
			<desc>C.S.P</desc>
			<v:userDefs>
				<v:ud v:nameU="visVersion" v:val="VT0(15):26"/>
			</v:userDefs>
			<v:textBlock v:margins="rect(4,4,4,4)" v:tabSpace="42.5197" v:verticalAlign="0"/>
			<v:textRect cx="63.7795" cy="459.727" width="127.56" height="112.672"/>
			<path d="M0 516.06 L127.56 516.06 L127.56 403.39 L0 403.39 L0 516.06 Z" class="st1"/>
			<text x="51.23" y="416.39" class="st2" v:langID="4105"><v:paragraph v:horizAlign="1"/><v:tabList/>C.S.P</text>		</g>
		<g id="shape61-7" v:mID="61" v:groupContext="shape" transform="translate(298.638,-1)">
			<title>Rectangle.61</title>
			<desc>C.S.P</desc>
			<v:userDefs>
				<v:ud v:nameU="visVersion" v:val="VT0(15):26"/>
			</v:userDefs>
			<v:textBlock v:margins="rect(4,4,4,4)" v:tabSpace="42.5197" v:verticalAlign="0"/>
			<v:textRect cx="63.7795" cy="459.727" width="127.56" height="112.672"/>
			<path d="M0 516.06 L127.56 516.06 L127.56 403.39 L0 403.39 L0 516.06 Z" class="st1"/>
			<text x="51.23" y="416.39" class="st2" v:langID="4105"><v:paragraph v:horizAlign="1"/><v:tabList/>C.S.P</text>		</g>
		<g id="shape1-10" v:mID="1" v:groupContext="shape" transform="translate(210.611,-429.388)">
			<title>Rectangle.385</title>
			<desc>Aurora Platform</desc>
			<v:userDefs>
				<v:ud v:nameU="visVersion" v:val="VT0(15):26"/>
			</v:userDefs>
			<v:textBlock v:margins="rect(4,4,4,4)"/>
			<v:textRect cx="52.3885" cy="473.225" width="104.78" height="85.6752"/>
			<path d="M0 516.06 L104.78 516.06 L104.78 430.39 L0 430.39 L0 516.06 Z" class="st3"/>
			<text x="16.17" y="476.23" class="st2" v:langID="4105"><v:paragraph v:horizAlign="1"/><v:tabList/>Aurora Platform</text>		</g>
		<g id="shape2-13" v:mID="2" v:groupContext="shape" transform="translate(299.916,-311.584)">
			<title>Rectangle.386</title>
			<desc>Platform Manifests (ArgoCD)</desc>
			<v:userDefs>
				<v:ud v:nameU="visVersion" v:val="VT0(15):26"/>
			</v:userDefs>
			<v:textBlock v:margins="rect(4,4,4,4)"/>
			<v:textRect cx="52.3885" cy="473.225" width="104.78" height="85.6752"/>
			<path d="M0 516.06 L104.78 516.06 L104.78 430.39 L0 430.39 L0 516.06 Z" class="st4"/>
			<text x="9.01" y="470.23" class="st2" v:langID="4105"><v:paragraph v:horizAlign="1"/><v:tabList/>Platform Manifests <tspan
						x="32.02" dy="1.2em" class="st5">(ArgoCD)</tspan></text>		</g>
		<g id="shape3-17" v:mID="3" v:groupContext="shape" v:layerMember="0" transform="translate(262.999,-429.388)">
			<title>Dynamic connector.92</title>
			<path d="M0 516.06 L0 526.69 L-78.81 526.69 L-78.81 548.19" class="st6"/>
		</g>
		<g id="shape4-20" v:mID="4" v:groupContext="shape" v:layerMember="0" transform="translate(352.305,-397.26)">
			<title>Dynamic connector.93</title>
			<path d="M0 516.06 L0 494.56 L-89.31 494.56 L-89.31 483.93" class="st6"/>
		</g>
		<g id="shape5-23" v:mID="5" v:groupContext="shape" transform="translate(131.798,-311.584)">
			<title>Rectangle.211</title>
			<desc>Infrastructure as Code (IaC)</desc>
			<v:userDefs>
				<v:ud v:nameU="visVersion" v:val="VT0(15):26"/>
			</v:userDefs>
			<v:textBlock v:margins="rect(4,4,4,4)" v:tabSpace="42.5197"/>
			<v:textRect cx="52.3885" cy="473.225" width="104.78" height="85.6752"/>
			<path d="M0 516.06 L104.78 516.06 L104.78 430.39 L0 430.39 L0 516.06 Z" class="st4"/>
			<text x="14.23" y="470.23" class="st2" v:langID="4105"><v:paragraph v:horizAlign="1"/><v:tabList/>Infrastructure as <tspan
						x="28.57" dy="1.2em" class="st5">Code (IaC)</tspan></text>		</g>
		<g id="shape12-27" v:mID="12" v:groupContext="shape" transform="translate(1,-172.242)">
			<title>Rectangle.387</title>
			<desc>terraform-aurora-azure-environment</desc>
			<v:userDefs>
				<v:ud v:nameU="visVersion" v:val="VT0(15):26"/>
			</v:userDefs>
			<v:textBlock v:margins="rect(4,4,4,4)" v:tabSpace="42.5197"/>
			<v:textRect cx="52.3885" cy="473.225" width="104.78" height="85.6752"/>
			<path d="M0 516.06 L104.78 516.06 L104.78 430.39 L0 430.39 L0 516.06 Z" class="st7"/>
			<text x="12.16" y="470.23" class="st2" v:langID="4105"><v:paragraph v:horizAlign="1"/><v:tabList/>terraform-aurora-<tspan
						x="9.07" dy="1.2em" class="st5">azure</tspan>-environment</text>		</g>
		<g id="shape13-31" v:mID="13" v:groupContext="shape" v:layerMember="0" transform="translate(53.3885,-257.917)">
			<title>Dynamic connector.213</title>
			<path d="M0 516.06 L0 485.69 L130.8 485.69 L130.8 462.4" class="st6"/>
		</g>
		<g id="shape14-34" v:mID="14" v:groupContext="shape" transform="translate(262.713,-172.242)">
			<title>Rectangle.218</title>
			<desc>terraform-aurora-gcp-environment</desc>
			<v:userDefs>
				<v:ud v:nameU="visVersion" v:val="VT0(15):26"/>
			</v:userDefs>
			<v:textBlock v:margins="rect(4,4,4,4)" v:tabSpace="42.5197"/>
			<v:textRect cx="52.3885" cy="473.225" width="104.78" height="85.6752"/>
			<path d="M0 516.06 L104.78 516.06 L104.78 430.39 L0 430.39 L0 516.06 Z" class="st7"/>
			<text x="12.16" y="470.23" class="st2" v:langID="4105"><v:paragraph v:horizAlign="1"/><v:tabList/>terraform-aurora-<tspan
						x="13.46" dy="1.2em" class="st5">gcp</tspan>-environment</text>		</g>
		<g id="shape15-38" v:mID="15" v:groupContext="shape" v:layerMember="0" transform="translate(315.102,-257.917)">
			<title>Dynamic connector.566</title>
			<path d="M0 516.06 L0 485.69 L-130.92 485.69 L-130.92 462.4" class="st6"/>
		</g>
		<g id="shape16-41" v:mID="16" v:groupContext="shape" transform="translate(131.499,-172.242)">
			<title>Rectangle.692</title>
			<desc>terraform-aurora-aws-environment</desc>
			<v:userDefs>
				<v:ud v:nameU="visVersion" v:val="VT0(15):26"/>
			</v:userDefs>
			<v:textBlock v:margins="rect(4,4,4,4)" v:tabSpace="42.5197"/>
			<v:textRect cx="52.3885" cy="473.225" width="104.78" height="85.6752"/>
			<path d="M0 516.06 L104.78 516.06 L104.78 430.39 L0 430.39 L0 516.06 Z" class="st7"/>
			<text x="12.16" y="470.23" class="st2" v:langID="4105"><v:paragraph v:horizAlign="1"/><v:tabList/>terraform-aurora-<tspan
						x="12.55" dy="1.2em" class="st5">aws</tspan>-environment</text>		</g>
		<g id="shape17-45" v:mID="17" v:groupContext="shape" v:layerMember="0" transform="translate(176.95,-257.917)">
			<title>Dynamic connector.697</title>
			<path d="M6.94 516.06 L7.24 462.4" class="st6"/>
		</g>
		<g id="shape19-48" v:mID="19" v:groupContext="shape" transform="translate(309.976,-10.0214)">
			<title>Rectangle.19</title>
			<desc>Azure AKS</desc>
			<v:userDefs>
				<v:ud v:nameU="visVersion" v:val="VT0(15):26"/>
			</v:userDefs>
			<v:textBlock v:margins="rect(4,4,4,4)" v:tabSpace="42.5197"/>
			<v:textRect cx="52.3885" cy="473.225" width="104.78" height="85.6752"/>
			<path d="M0 516.06 L104.78 516.06 L104.78 430.39 L0 430.39 L0 516.06 Z" class="st8"/>
			<text x="29.2" y="476.23" class="st2" v:langID="4105"><v:paragraph v:horizAlign="1"/><v:tabList/>Azure AKS</text>		</g>
		<g id="shape20-51" v:mID="20" v:groupContext="shape" v:layerMember="0" transform="translate(364.448,-113.672)">
			<title>Dynamic connector.20</title>
			<path d="M-2.03 516.06 L-2.03 498.31 L134.03 498.31 L134.03 341.44 L-12.14 341.44 L-12.14 318.15" class="st6"/>
		</g>
		<g id="shape21-54" v:mID="21" v:groupContext="shape" transform="translate(582.207,-10.0214)">
			<title>Rectangle.21</title>
			<desc>Google GKE</desc>
			<v:userDefs>
				<v:ud v:nameU="visVersion" v:val="VT0(15):26"/>
			</v:userDefs>
			<v:textBlock v:margins="rect(4,4,4,4)" v:tabSpace="42.5197"/>
			<v:textRect cx="52.3885" cy="473.225" width="104.78" height="85.6752"/>
			<path d="M0 516.06 L104.78 516.06 L104.78 430.39 L0 430.39 L0 516.06 Z" class="st8"/>
			<text x="25.66" y="476.23" class="st2" v:langID="4105"><v:paragraph v:horizAlign="1"/><v:tabList/>Google GKE</text>		</g>
		<g id="shape22-57" v:mID="22" v:groupContext="shape" v:layerMember="0" transform="translate(634.543,-113.672)">
			<title>Dynamic connector.22</title>
			<path d="M0 516.06 L0 498.29 L-136.06 498.29 L-136.06 341.44 L-282.24 341.44 L-282.24 318.15" class="st6"/>
		</g>
		<g id="shape23-60" v:mID="23" v:groupContext="shape" transform="translate(446.039,-10.0214)">
			<title>Rectangle.23</title>
			<desc>Amazon EKS</desc>
			<v:userDefs>
				<v:ud v:nameU="visVersion" v:val="VT0(15):26"/>
			</v:userDefs>
			<v:textBlock v:margins="rect(4,4,4,4)" v:tabSpace="42.5197"/>
			<v:textRect cx="52.3885" cy="473.225" width="104.78" height="85.6752"/>
			<path d="M0 516.06 L104.78 516.06 L104.78 430.39 L0 430.39 L0 516.06 Z" class="st8"/>
			<text x="24" y="476.23" class="st2" v:langID="4105"><v:paragraph v:horizAlign="1"/><v:tabList/>Amazon EKS</text>		</g>
		<g id="shape24-63" v:mID="24" v:groupContext="shape" v:layerMember="0" transform="translate(498.48,-113.672)">
			<title>Dynamic connector.24</title>
			<path d="M0 516.06 L0 341.44 L-146.18 341.44 L-146.18 318.15" class="st6"/>
		</g>
		<g id="shape27-66" v:mID="27" v:groupContext="shape" v:layerMember="0" transform="translate(498.48,-162.533)">
			<title>Dynamic connector.27</title>
			<path d="M0 511.6 L0 526.37 L-445.09 526.37 L-445.09 506.35" class="st6"/>
		</g>
		<g id="shape28-69" v:mID="28" v:groupContext="shape" v:layerMember="0" transform="translate(498.48,-162.533)">
			<title>Dynamic connector.28</title>
			<path d="M0 511.6 L0 526.37 L-314.59 526.37 L-314.59 506.35" class="st6"/>
		</g>
		<g id="shape51-72" v:mID="51" v:groupContext="shape" v:layerMember="0" transform="translate(498.48,-162.533)">
			<title>Dynamic connector.51</title>
			<path d="M0 511.6 L0 526.37 L-183.38 526.37 L-183.38 506.35" class="st6"/>
		</g>
	</g>
</svg>
