<svg width="116" height="82" viewBox="0 0 116 82" fill="none" xmlns="http://www.w3.org/2000/svg">
<path d="M92.0012 40.749C91.192 46.2606 89.6071 51.3485 87.2844 55.8844C81.1208 56.1557 74.9239 56.3461 68.8555 56.4413C68.9031 51.6484 68.9411 46.5414 68.9649 41.244C76.5897 41.1679 84.3383 41.0013 92.0012 40.749Z" fill="#E3262B"/>
<path d="M68.9783 22.3525C76.7506 22.4668 84.6515 22.7143 92.4762 23.0855C92.5095 24.5134 92.5285 25.827 92.5428 26.9979C92.5476 27.331 92.5571 27.7451 92.5761 28.2258C92.6428 30.32 92.7475 33.7945 92.3334 37.9972C84.5563 38.259 76.6983 38.4303 68.9688 38.5112C68.9925 30.8959 68.983 24.9227 68.9783 22.3525Z" fill="#EB7525"/>
<path d="M85.7086 58.6846C83.8286 61.7545 81.5583 64.5817 78.95 67.0852C75.9753 69.9409 72.4866 72.4492 68.5742 74.5481C68.6742 69.9361 68.7551 64.772 68.8217 59.1748C74.3809 59.0844 80.0543 58.9225 85.7086 58.6846Z" fill="#6284C1"/>
<path d="M46.3484 22.3711C46.3437 24.9413 46.3341 30.9097 46.3627 38.4964C38.7855 38.4108 31.0322 38.2347 23.3027 37.9777C22.8886 33.7797 22.9981 30.3148 23.0647 28.2253C23.079 27.7446 23.0933 27.3305 23.098 26.9974C23.1123 25.836 23.1313 24.5319 23.1646 23.1183C30.937 22.7471 38.7331 22.4948 46.3484 22.3711Z" fill="#92C53F"/>
<path d="M23.6367 40.7246C31.2472 40.9769 38.8911 41.1434 46.3731 41.2291C46.3969 46.5217 46.435 51.6287 46.4826 56.4168C40.5426 56.3121 34.4457 56.1218 28.3439 55.8457C26.026 51.3146 24.4411 46.2314 23.6367 40.7246Z" fill="#C6D872"/>
<path d="M29.9062 58.6523C35.4892 58.8856 41.0722 59.0569 46.5076 59.1521C46.5694 64.6922 46.6551 69.8087 46.7503 74.3779C42.9141 72.2885 39.492 69.7945 36.5649 66.9673C33.9995 64.4876 31.7577 61.6937 29.9062 58.6523Z" fill="#8061A5"/>
<path d="M57.8324 2V2.38076C70.5785 2.38076 82.6439 3.54209 91.8489 5.64582C92.0726 9.89133 92.282 15.3267 92.4153 20.3433C84.148 19.953 75.814 19.7008 67.6276 19.5961L66.6233 19.5818L66.2378 19.577V19.9625L66.2425 20.9668C66.2425 21.2762 66.3568 51.9991 65.8094 75.9301C63.3202 77.0914 60.6358 78.1242 57.8181 79C54.891 78.0862 52.1019 77.0057 49.5222 75.7825C48.9796 52.0562 49.0843 21.2905 49.0891 20.9811L49.0939 19.9768V19.5913L48.7083 19.5961L47.7041 19.6103C39.6842 19.7246 31.4502 19.9816 23.2305 20.3671C23.3637 15.3458 23.5779 9.89609 23.7969 5.64106C33.0161 3.53258 45.0863 2.376 57.8324 2.376V2Z" fill="#F3C018"/>
</svg>
